<?xml version="1.0" encoding="UTF-8"?>
<svg version="1.1" xmlns="http://www.w3.org/2000/svg" width="2000" height="2000">
<path d="M0 0 C660 0 1320 0 2000 0 C2000 660 2000 1320 2000 2000 C1340 2000 680 2000 0 2000 C0 1340 0 680 0 0 Z " fill="#FEFEFE" transform="translate(0,0)"/>
<path d="M0 0 C0.86593277 -0.00817749 1.73186554 -0.01635498 2.6240387 -0.02478027 C5.48755222 -0.04956506 8.35101589 -0.06614459 11.21459961 -0.08056641 C12.20004698 -0.08589008 13.18549435 -0.09121376 14.20080376 -0.09669876 C19.43041072 -0.12341742 24.65999407 -0.14278494 29.88964844 -0.15722656 C34.18121031 -0.17048485 38.47228755 -0.198188 42.76367188 -0.23925781 C47.97613209 -0.28912644 53.18815801 -0.31341459 58.40084648 -0.32045364 C60.36882714 -0.32708478 62.33680129 -0.34208795 64.30464363 -0.36634445 C84.39946402 -0.59964252 101.83552881 3.10114887 119.30444336 13.19287109 C120.32151367 13.77166016 121.33858398 14.35044922 122.38647461 14.94677734 C129.05051977 18.96384513 134.72545434 23.78932198 140.30444336 29.19287109 C141.10011719 29.90672974 141.10011719 29.90672974 141.91186523 30.63500977 C147.22682586 35.58630739 150.68077831 41.25220853 154.30444336 47.50537109 C154.94961914 48.59986572 155.59479492 49.69436035 156.25952148 50.82202148 C158.28740727 54.27173844 160.29806942 57.73060495 162.30444336 61.19287109 C162.93479492 62.27729492 163.56514648 63.36171875 164.21459961 64.47900391 C167.9729195 70.95014029 171.70622899 77.43537234 175.42944336 83.92675781 C178.54517831 89.3541409 181.67556061 94.77306091 184.80444336 100.19287109 C186.05059345 102.35299484 187.29668715 104.51315112 188.54272461 106.67333984 C191.08060329 111.07246184 193.61980918 115.4708143 196.15991211 119.86865234 C201.91752558 129.83934993 207.66666229 139.8142685 213.36694336 149.81787109 C218.15201233 158.21219422 223.00857528 166.56326756 227.88500977 174.90478516 C234.10003281 185.54115419 240.25134245 196.21392927 246.40014648 206.88867188 C248.31950998 210.21901361 250.24126689 213.54796257 252.16381836 216.87646484 C257.92057495 226.84430425 263.66810012 236.8167918 269.36694336 246.81787109 C274.15201233 255.21219422 279.00857528 263.56326756 283.88500977 271.90478516 C290.10003281 282.54115419 296.25134245 293.21392927 302.40014648 303.88867188 C304.31950998 307.21901361 306.24126689 310.54796257 308.16381836 313.87646484 C313.92057495 323.84430425 319.66810012 333.8167918 325.36694336 343.81787109 C330.14989807 352.20848523 335.00448777 360.55576412 339.87841797 368.89379883 C348.79359566 384.15235087 357.61633562 399.46438556 366.36694336 414.81787109 C371.15209746 423.21214645 376.00857463 431.56326644 380.88500977 439.90478516 C387.10003281 450.54115419 393.25134245 461.21392927 399.40014648 471.88867188 C401.31950998 475.21901361 403.24126689 478.54796257 405.16381836 481.87646484 C410.92057495 491.84430425 416.66810012 501.8167918 422.36694336 511.81787109 C427.14989807 520.20848523 432.00448777 528.55576412 436.87841797 536.89379883 C445.79359566 552.15235087 454.61633562 567.46438556 463.36694336 582.81787109 C468.15209746 591.21214645 473.00857463 599.56326644 477.88500977 607.90478516 C484.10003281 618.54115419 490.25134245 629.21392927 496.40014648 639.88867188 C498.31950998 643.21901361 500.24126689 646.54796257 502.16381836 649.87646484 C507.92057495 659.84430425 513.66810012 669.8167918 519.36694336 679.81787109 C524.15201233 688.21219422 529.00857528 696.56326756 533.88500977 704.90478516 C540.10003281 715.54115419 546.25134245 726.21392927 552.40014648 736.88867188 C554.31950998 740.21901361 556.24126689 743.54796257 558.16381836 746.87646484 C563.92057495 756.84430425 569.66810012 766.8167918 575.36694336 776.81787109 C580.14989807 785.20848523 585.00448777 793.55576412 589.87841797 801.89379883 C598.79359566 817.15235087 607.61633562 832.46438556 616.36694336 847.81787109 C621.15209746 856.21214645 626.00857463 864.56326644 630.88500977 872.90478516 C637.10003281 883.54115419 643.25134245 894.21392927 649.40014648 904.88867188 C651.31950998 908.21901361 653.24126689 911.54796257 655.16381836 914.87646484 C660.92057495 924.84430425 666.66810012 934.8167918 672.36694336 944.81787109 C677.15201233 953.21219422 682.00857528 961.56326756 686.88500977 969.90478516 C693.10003281 980.54115419 699.25134245 991.21392927 705.40014648 1001.88867188 C707.31950998 1005.21901361 709.24126689 1008.54796257 711.16381836 1011.87646484 C717.40319573 1022.67996342 723.62624851 1033.49196012 729.79931641 1044.33349609 C732.51215758 1049.08795056 735.2525864 1053.82499886 738.01928711 1058.54833984 C738.64891357 1059.62325684 739.27854004 1060.69817383 739.92724609 1061.80566406 C741.14440145 1063.88032111 742.36382733 1065.95364842 743.5859375 1068.02539062 C755.69711138 1088.65872317 755.69711138 1088.65872317 754.30444336 1100.19287109 C752.42282276 1106.93336009 748.22634959 1110.76787907 742.30444336 1114.19287109 C733.63723175 1118.09769291 724.39969979 1117.60883319 715.11301231 1117.56201458 C713.35840786 1117.56423556 711.60380468 1117.56777351 709.8492052 1117.57250407 C705.02403929 1117.5816974 700.19906346 1117.57219737 695.37391174 1117.55966967 C690.12603486 1117.549357 684.87817704 1117.55648138 679.63029635 1117.56140214 C670.43174843 1117.56762218 661.23325872 1117.56269404 652.03471756 1117.55048752 C638.35681933 1117.53238727 624.67895783 1117.53147966 611.00104981 1117.53411348 C587.99298918 1117.53805604 564.98496142 1117.52804953 541.97690964 1117.51006126 C519.19315849 1117.49229094 496.40941798 1117.48073541 473.62565994 1117.47750282 C472.91795542 1117.47739959 472.21025089 1117.47729635 471.48110078 1117.47718999 C465.01726322 1117.47625038 458.55342564 1117.47538731 452.08958806 1117.47461606 C436.02156614 1117.47269793 419.95354448 1117.46982 403.88552284 1117.46629047 C402.78799725 1117.46605055 402.78799725 1117.46605055 401.66829943 1117.46580577 C366.08037595 1117.45794214 330.4924595 1117.43901984 294.90454102 1117.41918945 C282.55550136 1117.41231444 270.20646167 1117.40548834 257.85742188 1117.39886475 C257.09152805 1117.3984539 256.32563423 1117.39804305 255.53653151 1117.39761975 C219.92871022 1117.37858574 184.32088773 1117.36741017 148.71306269 1117.35826036 C146.4012333 1117.35766617 144.08940391 1117.35706859 141.77757452 1117.35647032 C126.45689603 1117.35251096 111.1362175 1117.34868702 95.81553895 1117.34495375 C65.33147219 1117.33752434 34.84740566 1117.32929929 4.36333926 1117.3205276 C2.91162494 1117.32010988 1.45991062 1117.31969272 0.0081963 1117.31927612 C-84.67777447 1117.2949674 -169.36373758 1117.25492496 -289.69555664 1117.19287109 C-288.31551424 1113.66125531 -286.78994762 1110.45967659 -284.85961914 1107.19287109 C-284.29629883 1106.23445313 -283.73297852 1105.27603516 -283.15258789 1104.28857422 C-282.54801758 1103.26699219 -281.94344727 1102.24541016 -281.32055664 1101.19287109 C-280.04111996 1099.01625243 -278.7624877 1096.83916075 -277.48461914 1094.66162109 C-276.52410645 1093.02580078 -276.52410645 1093.02580078 -275.54418945 1091.35693359 C-272.89422041 1086.82132889 -270.29159723 1082.25949048 -267.69555664 1077.69287109 C-263.49347064 1070.31020453 -259.23658511 1062.96167982 -254.94555664 1055.63037109 C-249.80692357 1046.84901814 -244.73242113 1038.03281655 -239.69555664 1029.19287109 C-234.09823787 1019.36930076 -228.44262789 1009.58190015 -222.72973633 999.82495117 C-218.23932517 992.14831961 -213.81436116 984.4357869 -209.42504883 976.70092773 C-208.96259766 975.88744873 -208.50014648 975.07396973 -208.02368164 974.23583984 C-207.62052734 973.52451904 -207.21737305 972.81319824 -206.80200195 972.08032227 C-205.82576738 970.4149936 -204.76633687 968.79904144 -203.69555664 967.19287109 C-201.5705389 966.81622692 -201.5705389 966.81622692 -198.87538278 966.81386358 C-197.84886173 966.80568828 -196.82234068 966.79751298 -195.76471293 966.78908995 C-194.05674652 966.79850499 -194.05674652 966.79850499 -192.31427574 966.80811024 C-191.10815762 966.80296033 -189.90203949 966.79781042 -188.65937233 966.79250446 C-185.28586944 966.78116762 -181.91285158 966.78339888 -178.53936957 966.79113331 C-174.87911813 966.79625219 -171.21891947 966.7840612 -167.55868399 966.77400178 C-161.13526461 966.75876269 -154.71191252 966.75472006 -148.28847694 966.75787926 C-138.73699024 966.76252682 -129.18558014 966.75008076 -119.6341085 966.73404953 C-103.56920774 966.70757437 -87.50432424 966.69508521 -71.43940353 966.690485 C-55.52626796 966.68588285 -39.61315637 966.67511469 -23.70003128 966.65605736 C-22.71170351 966.65487723 -21.72337573 966.6536971 -20.70509863 966.65248121 C-15.68616441 966.64645604 -10.66723034 966.64032019 -5.64829631 966.63414171 C29.92839181 966.59054486 65.50507937 966.56085478 101.08178711 966.53930664 C135.65048077 966.51833731 170.21916014 966.49109143 204.7878418 966.45532227 C206.38534002 966.45367305 206.38534002 966.45367305 208.01511093 966.45199052 C218.70997596 966.44094247 229.40484085 966.42976653 240.09970564 966.41849689 C261.8876265 966.39554094 283.6755482 966.37343868 305.46347046 966.35185242 C306.46530948 966.3508588 307.4671485 966.34986518 308.49934628 966.34884145 C375.43436694 966.28255351 442.36940437 966.23616824 509.30444336 966.19287109 C508.88932495 965.47333252 508.47420654 964.75379395 508.04650879 964.01245117 C460.55444335 881.69287107 460.55444335 881.69287107 458.67919922 878.44238281 C457.43008818 876.27730039 456.18090207 874.11226127 454.93164062 871.94726562 C451.79242027 866.50671404 448.65453773 861.06539894 445.51928711 855.62255859 C439.49697007 845.1708091 433.45774999 834.72987561 427.36694336 824.31787109 C421.94523158 815.04787332 416.60239421 805.73455357 411.28521729 796.40441895 C406.08399207 787.28004269 400.82416458 778.19154335 395.52099609 769.12597656 C389.36677594 758.60202485 383.2807434 748.03906972 377.19555664 737.47509766 C374.06764188 732.04627167 370.93585888 726.61967828 367.80444336 721.19287109 C366.55442457 719.02621527 365.30442458 716.8595486 364.05444336 714.69287109 C363.12631836 713.08412109 363.12631836 713.08412109 362.17944336 711.44287109 C251.55444336 519.69287109 251.55444336 519.69287109 249.67919922 516.44238281 C248.43008818 514.27730039 247.18090207 512.11226127 245.93164062 509.94726562 C242.79242027 504.50671404 239.65453773 499.06539894 236.51928711 493.62255859 C230.49697007 483.1708091 224.45774999 472.72987561 218.36694336 462.31787109 C212.94523158 453.04787332 207.60239421 443.73455357 202.28521729 434.40441895 C197.08399207 425.28004269 191.82416458 416.19154335 186.52099609 407.12597656 C180.36677594 396.60202485 174.2807434 386.03906972 168.19555664 375.47509766 C165.06764188 370.04627167 161.93585888 364.61967828 158.80444336 359.19287109 C157.55442457 357.02621527 156.30442458 354.8595486 155.05444336 352.69287109 C154.43569336 351.62037109 153.81694336 350.54787109 153.17944336 349.44287109 C27.55444336 131.69287109 27.55444336 131.69287109 25.67919922 128.44238281 C24.43008818 126.27730039 23.18090207 124.11226127 21.93164062 121.94726562 C18.79242027 116.50671404 15.65453773 111.06539894 12.51928711 105.62255859 C6.47388636 95.13054077 0.41201558 84.64883476 -5.69555664 74.19287109 C-6.83751087 72.2332515 -7.97943775 70.27361596 -9.12133789 68.31396484 C-11.32298256 64.53734011 -13.53461023 60.76686369 -15.756073 57.00186157 C-16.79560419 55.23722997 -17.8312481 53.47037957 -18.86547852 51.70263672 C-20.17394611 49.46696846 -21.48868119 47.23495202 -22.81079102 45.00732422 C-28.17957224 35.79954451 -32.41566918 27.09227581 -30.69555664 16.19287109 C-28.00658037 9.575555 -23.57285014 5.5801376 -17.19555664 2.50537109 C-11.41621297 0.33811722 -6.13532801 0.03223225 0 0 Z " fill="#61BC47" transform="translate(965.695556640625,71.80712890625)"/>
<path d="M0 0 C8.02437242 4.85780885 13.08231732 11.87447346 17.4375 20 C18.46996387 21.86535353 19.50387671 23.72990563 20.5390625 25.59375 C21.33812012 27.04394531 21.33812012 27.04394531 22.15332031 28.5234375 C24.96147173 33.56125122 27.89153061 38.52704359 30.8125 43.5 C35.68587293 51.82773042 40.5029824 60.18501246 45.27563477 68.57080078 C49.0542843 75.19950687 52.89435568 81.79083553 56.75 88.375 C61.98496497 97.31698355 67.1167777 106.31200024 72.19677734 115.34277344 C75.75600015 121.65987675 79.38810389 127.92760951 83.08398438 134.16552734 C86.29862918 139.60023785 89.43900665 145.0749649 92.5625 150.5625 C96.87206258 158.13063094 101.22915282 165.66916188 105.625 173.1875 C115.13070753 189.44872006 124.54818047 205.76051504 133.875 222.125 C138.6580398 230.51556638 143.51254376 238.86289192 148.38647461 247.20092773 C157.3016523 262.45947977 166.12439226 277.77151447 174.875 293.125 C179.6601541 301.51927535 184.51663127 309.87039535 189.39306641 318.21191406 C195.60808945 328.8482831 201.75939909 339.52105818 207.90820312 350.19580078 C209.82756662 353.52614252 211.74932353 356.85509148 213.671875 360.18359375 C219.42863159 370.15143316 225.17615676 380.1239207 230.875 390.125 C235.65795471 398.51561414 240.51254441 406.86289302 245.38647461 415.20092773 C254.3016523 430.45947977 263.12439226 445.77151447 271.875 461.125 C276.6601541 469.51927535 281.51663127 477.87039535 286.39306641 486.21191406 C292.60808945 496.8482831 298.75939909 507.52105818 304.90820312 518.19580078 C306.82756662 521.52614252 308.74932353 524.85509148 310.671875 528.18359375 C316.42863159 538.15143316 322.17615676 548.1239207 327.875 558.125 C332.66006897 566.51932313 337.51663192 574.87039647 342.39306641 583.21191406 C348.60808945 593.8482831 354.75939909 604.52105818 360.90820312 615.19580078 C362.82756662 618.52614252 364.74932353 621.85509148 366.671875 625.18359375 C372.42863159 635.15143316 378.17615676 645.1239207 383.875 655.125 C388.66006897 663.51932313 393.51663192 671.87039647 398.39306641 680.21191406 C404.60808945 690.8482831 410.75939909 701.52105818 416.90820312 712.19580078 C418.82756662 715.52614252 420.74932353 718.85509148 422.671875 722.18359375 C428.42863159 732.15143316 434.17615676 742.1239207 439.875 752.125 C444.65795471 760.51561414 449.51254441 768.86289302 454.38647461 777.20092773 C463.3016523 792.45947977 472.12439226 807.77151447 480.875 823.125 C485.08179542 830.50469947 489.33877482 837.85366371 493.625 845.1875 C498.71997372 853.90993544 503.80971989 862.63528778 508.875 871.375 C509.80372925 872.9696106 509.80372925 872.9696106 510.7512207 874.59643555 C511.33991943 875.61390869 511.92861816 876.63138184 512.53515625 877.6796875 C513.04828369 878.56382324 513.56141113 879.44795898 514.09008789 880.35888672 C516.45576286 884.67309992 518.6120976 889.0991952 520.8125 893.5 C463.7225 893.5 406.6325 893.5 347.8125 893.5 C343.5225 885.91 339.2325 878.32 334.8125 870.5 C332.55278627 866.59643235 330.28888163 862.69855195 328 858.8125 C322.87837742 850.07493049 317.82602288 841.29983667 312.8125 832.5 C307.27281101 822.77865901 301.67874937 813.09104908 296.02905273 803.43310547 C289.87483258 792.90915375 283.78880004 782.34619863 277.70361328 771.78222656 C274.57569852 766.35340058 271.44391552 760.92680719 268.3125 755.5 C267.06248121 753.33334417 265.81248122 751.1666775 264.5625 749 C263.634375 747.39125 263.634375 747.39125 262.6875 745.75 C152.0625 554 152.0625 554 150.18725586 550.74951172 C148.93814482 548.58442929 147.68895871 546.41939018 146.43969727 544.25439453 C143.30047691 538.81384294 140.16259437 533.37252784 137.02734375 527.9296875 C131.00502671 517.47793801 124.96580663 507.03700452 118.875 496.625 C113.45328822 487.35500223 108.11045085 478.04168248 102.79327393 468.71154785 C97.59204871 459.5871716 92.33222122 450.49867226 87.02905273 441.43310547 C80.87483258 430.90915375 74.78880004 420.34619863 68.70361328 409.78222656 C65.57569852 404.35340058 62.44391552 398.92680719 59.3125 393.5 C58.06248121 391.33334417 56.81248122 389.1666775 55.5625 387 C54.634375 385.39125 54.634375 385.39125 53.6875 383.75 C33.06250001 348.00000001 33.06250001 348.00000001 31.18725586 344.74951172 C29.93814482 342.58442929 28.68895871 340.41939018 27.43969727 338.25439453 C24.30047691 332.81384294 21.16259437 327.37252784 18.02734375 321.9296875 C16.76823541 319.74478807 15.50912086 317.55989221 14.25 315.375 C13.63954834 314.31474609 13.02909668 313.25449219 12.40014648 312.16210938 C9.20967366 306.62784828 5.99962418 301.10590431 2.7578125 295.6015625 C2.10627197 294.49312988 1.45473145 293.38469727 0.78344727 292.24267578 C-0.4648778 290.12162506 -1.71684949 288.00271524 -2.97290039 285.88623047 C-3.5271167 284.94408691 -4.08133301 284.00194336 -4.65234375 283.03125 C-5.143396 282.20173828 -5.63444824 281.37222656 -6.14038086 280.51757812 C-7.1875 278.5 -7.1875 278.5 -7.1875 276.5 C-7.8475 276.5 -8.5075 276.5 -9.1875 276.5 C-9.59693848 277.57930786 -9.59693848 277.57930786 -10.01464844 278.68041992 C-11.16810771 281.4533802 -12.48488687 283.9947937 -13.953125 286.61328125 C-14.50597168 287.60110596 -15.05881836 288.58893066 -15.62841797 289.60668945 C-16.22541504 290.66460693 -16.82241211 291.72252441 -17.4375 292.8125 C-18.06156738 293.92262451 -18.68563477 295.03274902 -19.32861328 296.17651367 C-24.07119692 304.58587771 -28.90996106 312.93691436 -33.79394531 321.26489258 C-38.31420684 328.97854463 -42.76226045 336.73165875 -47.1875 344.5 C-52.72703103 354.22142984 -58.32125187 363.90895304 -63.97094727 373.56689453 C-70.12516742 384.09084625 -76.21119996 394.65380137 -82.29638672 405.21777344 C-85.42430148 410.64659942 -88.55608448 416.07319281 -91.6875 421.5 C-92.93751879 423.66665583 -94.18751878 425.8333225 -95.4375 428 C-132.9375 493 -170.4375 558 -207.9375 623 C-208.55633057 624.07266113 -209.17516113 625.14532227 -209.81274414 626.25048828 C-211.06185518 628.41557071 -212.31104129 630.58060982 -213.56030273 632.74560547 C-216.69952309 638.18615706 -219.83740563 643.62747216 -222.97265625 649.0703125 C-228.99497329 659.52206199 -235.03419337 669.96299548 -241.125 680.375 C-246.20025123 689.05262241 -251.21008767 697.76605568 -256.1875 706.5 C-261.7275173 716.22115617 -267.32124809 725.90894658 -272.97094727 735.56689453 C-279.12516742 746.09084625 -285.21119996 756.65380137 -291.29638672 767.21777344 C-294.42430148 772.64659942 -297.55608448 778.07319281 -300.6875 783.5 C-301.93751879 785.66665583 -303.18751878 787.8333225 -304.4375 790 C-341.9375 855 -379.4375 920 -416.9375 985 C-417.55633057 986.07266113 -418.17516113 987.14532227 -418.81274414 988.25048828 C-420.06185518 990.41557071 -421.31104129 992.58060982 -422.56030273 994.74560547 C-425.69952309 1000.18615706 -428.83740563 1005.62747216 -431.97265625 1011.0703125 C-437.99497329 1021.52206199 -444.03419337 1031.96299548 -450.125 1042.375 C-455.20025123 1051.05262241 -460.21008767 1059.76605568 -465.1875 1068.5 C-470.7275173 1078.22115617 -476.32124809 1087.90894658 -481.97094727 1097.56689453 C-488.12516742 1108.09084625 -494.21119996 1118.65380137 -500.29638672 1129.21777344 C-504.04778024 1135.72871257 -507.80440994 1142.23663194 -511.56005859 1148.74511719 C-515.33096596 1155.2805704 -519.099247 1161.81752684 -522.86499023 1168.35595703 C-524.73188441 1171.59358338 -526.60412008 1174.82808009 -528.4765625 1178.0625 C-530.99830475 1182.422708 -533.48861579 1186.79909693 -535.9609375 1191.1875 C-537.18223568 1193.3333652 -538.4035878 1195.4791997 -539.625 1197.625 C-540.16777588 1198.60227051 -540.71055176 1199.57954102 -541.26977539 1200.58642578 C-545.45220591 1207.89021587 -550.19545255 1214.04335542 -557.4375 1218.5 C-563.57248312 1220.1359955 -569.69839657 1220.92368362 -575.71484375 1218.46875 C-585.71859451 1212.31259569 -591.13665691 1201.51902902 -596.6875 1191.5625 C-597.38287182 1190.32838607 -598.07909608 1189.09475212 -598.77612305 1187.86157227 C-599.85011751 1185.96113052 -600.92355129 1184.06039476 -601.99430847 1182.15812683 C-605.6161169 1175.72409795 -609.30454651 1169.3295199 -613 1162.9375 C-613.92594971 1161.32838745 -613.92594971 1161.32838745 -614.87060547 1159.68676758 C-617.67546802 1154.81664241 -620.498743 1149.96122543 -623.39453125 1145.14453125 C-628.76009544 1136.17885223 -633.39069291 1127.64599282 -636.1875 1117.5 C-636.46134521 1116.57973022 -636.46134521 1116.57973022 -636.74072266 1115.64086914 C-638.52950453 1108.89616509 -638.49145834 1102.17926853 -638.44824219 1095.2355957 C-638.43757437 1093.20167855 -638.44815965 1091.16865511 -638.4609375 1089.13476562 C-638.40401764 1060.00602828 -623.89088836 1038.23005067 -609.40234375 1013.92578125 C-606.2892841 1008.69370893 -603.25821973 1003.4178866 -600.25 998.125 C-595.94527557 990.5539089 -591.58550594 983.0172912 -587.1875 975.5 C-582.31570341 967.1713356 -577.4970286 958.81500687 -572.72436523 950.42919922 C-568.9457157 943.80049313 -565.10564432 937.20916447 -561.25 930.625 C-556.01503503 921.68301645 -550.8832223 912.68799976 -545.80322266 903.65722656 C-542.24609694 897.34384528 -538.61612196 891.07981154 -534.92260742 884.84545898 C-531.64416094 879.30255258 -528.43852604 873.72005678 -525.25 868.125 C-517.39644503 854.34663626 -509.43534679 840.63253449 -501.4375 826.9375 C-491.42445133 809.78843015 -481.5081204 792.58428452 -471.67529297 775.33129883 C-467.30140649 767.67078251 -462.85191683 760.0552112 -458.39819336 752.44091797 C-454.62389822 745.98153637 -450.88855898 739.50159291 -447.1875 733 C-442.3175857 724.44509708 -437.36858296 715.93840165 -432.3984375 707.44140625 C-428.12662347 700.13039414 -423.91268291 692.78828234 -419.72436523 685.42919922 C-415.9457157 678.80049313 -412.10564432 672.20916447 -408.25 665.625 C-403.01503503 656.68301645 -397.8832223 647.68799976 -392.80322266 638.65722656 C-389.24609694 632.34384528 -385.61612196 626.07981154 -381.92260742 619.84545898 C-378.64416094 614.30255258 -375.43852604 608.72005678 -372.25 603.125 C-364.92279287 590.27006675 -357.50795262 577.46772783 -350.04248047 564.69262695 C-344.55451932 555.3006041 -339.10832232 545.88748832 -333.72680664 536.43408203 C-329.33887356 528.73760823 -324.87151775 521.0886155 -320.3984375 513.44140625 C-316.12662347 506.13039414 -311.91268291 498.78828234 -307.72436523 491.42919922 C-303.9457157 484.80049313 -300.10564432 478.20916447 -296.25 471.625 C-291.01503503 462.68301645 -285.8832223 453.68799976 -280.80322266 444.65722656 C-277.24609694 438.34384528 -273.61612196 432.07981154 -269.92260742 425.84545898 C-266.64416094 420.30255258 -263.43852604 414.72005678 -260.25 409.125 C-252.92279287 396.27006675 -245.50795262 383.46772783 -238.04248047 370.69262695 C-232.55451932 361.3006041 -227.10832232 351.88748832 -221.72680664 342.43408203 C-217.33887356 334.73760823 -212.87151775 327.0886155 -208.3984375 319.44140625 C-204.12662347 312.13039414 -199.91268291 304.78828234 -195.72436523 297.42919922 C-191.9457157 290.80049313 -188.10564432 284.20916447 -184.25 277.625 C-179.01503503 268.68301645 -173.8832223 259.68799976 -168.80322266 250.65722656 C-165.24609694 244.34384528 -161.61612196 238.07981154 -157.92260742 231.84545898 C-154.64416094 226.30255258 -151.43852604 220.72005678 -148.25 215.125 C-140.92279287 202.27006675 -133.50795262 189.46772783 -126.04248047 176.69262695 C-120.55451932 167.3006041 -115.10832232 157.88748832 -109.72680664 148.43408203 C-105.33887356 140.73760823 -100.87151775 133.0886155 -96.3984375 125.44140625 C-92.12662347 118.13039414 -87.91268291 110.78828234 -83.72436523 103.42919922 C-79.9457157 96.80049313 -76.10564432 90.20916447 -72.25 83.625 C-67.57658608 75.64221679 -62.97319693 67.62432035 -58.4375 59.5625 C-54.31700146 52.23867597 -50.1555626 44.94539326 -45.85668945 37.72460938 C-43.66471951 34.03829625 -41.52480025 30.33097369 -39.44140625 26.58203125 C-19.73225571 -8.70083716 -19.73225571 -8.70083716 0 0 Z " fill="#098E50" transform="translate(909.1875,118.5)"/>
<path d="M0 0 C0.66 0 1.32 0 2 0 C2.34144043 0.6077124 2.68288086 1.2154248 3.03466797 1.84155273 C9.02720727 12.49863645 15.03551659 23.14082022 21.26806641 33.65966797 C24.48376957 39.096381 27.62538703 44.57299789 30.75 50.0625 C35.05956232 57.63063047 39.41661788 65.16918266 43.8125 72.6875 C48.71250786 81.06903894 53.58852113 89.46382834 58.4375 97.875 C59.05334961 98.94322998 59.66919922 100.01145996 60.30371094 101.11206055 C62.87841175 105.57958865 65.45193191 110.0477956 68.02441406 114.51660156 C69.38115258 116.87346291 70.73833221 119.23006924 72.09594727 121.58642578 C73.36546119 123.79006869 74.63423268 125.99413955 75.90209961 128.19873047 C76.4822583 129.20564941 77.06241699 130.21256836 77.66015625 131.25 C78.2133252 132.21550781 78.76649414 133.18101562 79.33642578 134.17578125 C80.45288817 136.07117851 81.60849318 137.94401437 82.80029297 139.79296875 C83.35990723 140.66566406 83.91952148 141.53835938 84.49609375 142.4375 C85.00197021 143.19933594 85.50784668 143.96117187 86.02905273 144.74609375 C87.29072992 147.67488526 86.98720614 148.99160549 86 152 C84.74755859 154.54174805 84.74755859 154.54174805 83.1484375 157.26171875 C82.55224609 158.28458984 81.95605469 159.30746094 81.34179688 160.36132812 C80.69275391 161.45896484 80.04371094 162.55660156 79.375 163.6875 C78.69521082 164.84916922 78.01618752 166.01128693 77.33789062 167.17382812 C75.92841697 169.58817446 74.51567013 172.00055922 73.10058594 174.41162109 C69.86944479 179.92318583 66.68727005 185.4629938 63.5 191 C62.25023053 193.16679965 61.00022976 195.3334659 59.75 197.5 C58.821875 199.10875 58.821875 199.10875 57.875 200.75 C41 230 24.125 259.25 7.25 288.5 C6.63116943 289.57266113 6.01233887 290.64532227 5.37475586 291.75048828 C4.12564482 293.91557071 2.87645871 296.08060982 1.62719727 298.24560547 C-1.51202309 303.68615706 -4.64990563 309.12747216 -7.78515625 314.5703125 C-13.80747329 325.02206199 -19.84669337 335.46299548 -25.9375 345.875 C-31.01275123 354.55262241 -36.02258767 363.26605568 -41 372 C-46.5400173 381.72115617 -52.13374809 391.40894658 -57.78344727 401.06689453 C-63.93766742 411.59084625 -70.02369996 422.15380137 -76.10888672 432.71777344 C-79.23680148 438.14659942 -82.36858448 443.57319281 -85.5 449 C-86.75001879 451.16665583 -88.00001878 453.3333225 -89.25 455.5 C-126.75 520.5 -164.25 585.5 -201.75 650.5 C-202.36883057 651.57266113 -202.98766113 652.64532227 -203.62524414 653.75048828 C-204.87435518 655.91557071 -206.12354129 658.08060982 -207.37280273 660.24560547 C-210.51202309 665.68615706 -213.64990563 671.12747216 -216.78515625 676.5703125 C-222.8074735 687.02206236 -228.84674164 697.46296702 -234.9375 707.875 C-240.70934174 717.74460306 -246.39974622 727.6593142 -252.05639648 737.59521484 C-255.92940483 744.39443973 -259.8320589 751.17559623 -263.75512695 757.94604492 C-264.26135841 758.82005699 -264.76758987 759.69406906 -265.28916168 760.59456635 C-266.52593646 762.72981022 -267.76288625 764.8649525 -269 767 C-268.0658774 766.99937608 -267.1317548 766.99875216 -266.16932545 766.99810933 C-181.14532721 766.94140096 -96.12132294 766.88469752 38.85380554 766.83062744 C40.38731912 766.83006964 41.9208327 766.82951183 43.45434628 766.82895402 C75.6430301 766.81726334 107.83171417 766.80639647 140.02039859 766.79648129 C156.18978322 766.7914997 172.35916781 766.78635981 188.52855235 766.78107023 C190.96764662 766.78027324 193.4067409 766.77948077 195.84583518 766.77868848 C233.40550776 766.76644821 270.96517515 766.75081233 308.52484131 766.7253418 C309.73623803 766.7245204 309.73623803 766.7245204 310.97210742 766.72368242 C323.99301773 766.71483291 337.01392785 766.70569848 350.03483795 766.69652624 C387.53799784 766.67011246 425.04115375 766.64580465 462.54432201 766.63544083 C463.3155096 766.63522669 464.0866972 766.63501255 464.88125411 766.63479192 C481.81050449 766.63012891 498.73975492 766.62654947 515.66900575 766.62399607 C522.4807195 766.62294958 529.29243323 766.6217471 536.10414696 766.62049103 C536.84966032 766.62035732 537.59517368 766.62022361 538.36327835 766.62008585 C562.38563658 766.61569981 586.4079652 766.59861464 610.43031148 766.57487117 C634.62811402 766.55101238 658.82588782 766.53960295 683.02370243 766.54550405 C698.04043418 766.54915214 713.05706462 766.54200405 728.07377749 766.51680983 C737.64898201 766.50183911 747.22411606 766.50132502 756.79932539 766.51267275 C762.25928645 766.51872641 767.71904424 766.51839313 773.17898373 766.50046727 C778.14617416 766.48428278 783.11300265 766.48651821 788.08018751 766.5034401 C789.86591792 766.50629685 791.65167491 766.50244706 793.43737129 766.49105902 C805.18990832 766.42086149 816.65064868 766.74513818 825.62890625 775.37890625 C829.58002901 780.05046165 830.70701605 785.21869757 830.44921875 791.18359375 C828.3006138 804.65441263 818.77790121 817.23141861 811.93945312 828.72216797 C808.68341434 834.22513584 805.50061753 839.770005 802.3125 845.3125 C801.68537109 846.39821289 801.05824219 847.48392578 800.41210938 848.60253906 C797.548974 853.55981063 794.69873867 858.52304851 791.890625 863.51171875 C787.16576189 871.87293626 782.51040949 879.86567626 776 887 C775.401875 887.67804687 774.80375 888.35609375 774.1875 889.0546875 C760.10988296 904.12946908 735.84823628 917.13022382 715.02066876 918.09133879 C712.80769685 918.12896258 710.59684754 918.13458713 708.38356179 918.12880117 C707.11161976 918.13146368 707.11161976 918.13146368 705.81398193 918.13417998 C702.96583182 918.13891987 700.11773235 918.13654699 697.26957989 918.13422108 C695.20087934 918.13617424 693.13217917 918.13856317 691.06347957 918.14134905 C685.35221921 918.14775657 679.6409729 918.14791007 673.92970963 918.14707164 C667.72629111 918.14724099 661.52287765 918.15314541 655.31946164 918.1583125 C644.43827223 918.16655912 633.55708767 918.17106363 622.67589569 918.17303848 C610.99907309 918.17516703 599.32225424 918.17942709 587.64543343 918.1862812 C586.90820897 918.18671182 586.17098451 918.18714243 585.41141992 918.1875861 C582.40886716 918.18934444 579.40631441 918.19111409 576.40376166 918.19289912 C540.00600174 918.21449558 503.60824108 918.22537672 467.21047622 918.23437535 C455.40935976 918.23730923 443.60824349 918.24067911 431.80712724 918.24434257 C430.55836169 918.24473 430.55836169 918.24473 429.28436856 918.24512527 C425.91633928 918.24617149 422.54831001 918.24721991 419.18028074 918.24827109 C361.57398201 918.26623436 303.967683 918.28161424 246.36138187 918.28903012 C241.8368235 918.28961409 237.31226512 918.29021136 232.78770675 918.29080774 C231.44140984 918.29098492 231.44140984 918.29098492 230.067915 918.29116567 C220.97461351 918.29236307 211.88131201 918.29357183 202.78801051 918.29479821 C200.96477274 918.29504344 199.14153497 918.2952873 197.3182972 918.29552978 C138.74678592 918.30332161 80.17529466 918.32571057 21.60379214 918.3582062 C-20.48235468 918.38154786 -62.56849752 918.40310151 -104.65465069 918.41021252 C-105.51992522 918.41035954 -106.38519975 918.41050656 -107.27669472 918.41065803 C-126.27036673 918.41384265 -145.26403869 918.41589369 -164.25771092 918.41688558 C-171.89966361 918.41730033 -179.54161628 918.41785523 -187.18356895 918.41844749 C-188.43812078 918.4185385 -188.43812078 918.4185385 -189.71801708 918.41863134 C-216.67100175 918.42064821 -243.62396279 918.43489295 -270.57693922 918.4553925 C-297.7191107 918.4759628 -324.86125485 918.48387303 -352.00343335 918.47431473 C-355.75269895 918.47299625 -359.50196457 918.47181821 -363.25123024 918.47072411 C-364.35368261 918.47039433 -364.35368261 918.47039433 -365.47840675 918.4700579 C-377.12332981 918.46694169 -388.76820067 918.47727738 -400.41311163 918.49319966 C-411.85930415 918.50857195 -423.30540512 918.50938023 -434.75160703 918.49565142 C-440.87633042 918.48872019 -447.00087378 918.48820289 -453.12558148 918.50521151 C-458.69470488 918.5205518 -464.26350257 918.51756188 -469.83261603 918.49980123 C-471.83735206 918.49664509 -473.84211261 918.50022831 -475.84682059 918.51129298 C-496.94945798 918.62020085 -496.94945798 918.62020085 -506.4375 911.6875 C-511.68983842 906.17894994 -512.33185053 901.38582449 -512.3984375 894.0390625 C-511.40954095 886.49630253 -508.19407114 880.0223741 -504.4375 873.5 C-503.99841309 872.72374268 -503.55932617 871.94748535 -503.10693359 871.14770508 C-499.76415251 865.26295543 -496.33958472 859.42576104 -492.89013672 853.60302734 C-489.55830157 847.97515404 -486.30016022 842.30750877 -483.0625 836.625 C-475.20908718 822.84655689 -467.24784556 809.13253238 -459.25 795.4375 C-449.23695133 778.28843015 -439.3206204 761.08428452 -429.48779297 743.83129883 C-425.11390649 736.17078251 -420.66441683 728.5552112 -416.21069336 720.94091797 C-412.43639822 714.48153637 -408.70105898 708.00159291 -405 701.5 C-400.1300857 692.94509708 -395.18108296 684.43840165 -390.2109375 675.94140625 C-385.93912347 668.63039414 -381.72518291 661.28828234 -377.53686523 653.92919922 C-373.7582157 647.30049313 -369.91814432 640.70916447 -366.0625 634.125 C-360.82454963 625.177917 -355.69015074 616.17758518 -350.60693359 607.1418457 C-347.14599772 600.99955424 -343.61554975 594.90539673 -340.01855469 588.84204102 C-335.93603337 581.93835109 -331.97043638 574.96846018 -328 568 C-323.24799578 559.66062717 -318.46859317 551.34091574 -313.57714844 543.08227539 C-310.41387282 537.73122137 -307.32540299 532.33946436 -304.25 526.9375 C-299.88095242 519.26338811 -295.45897391 511.62220376 -291 504 C-286.626186 496.52259352 -282.28554518 489.02835075 -278 481.5 C-273.1300857 472.94509708 -268.18108296 464.43840165 -263.2109375 455.94140625 C-259.4366162 449.48182994 -255.70114882 443.00175074 -252 436.5 C-247.1300857 427.94509708 -242.18108296 419.43840165 -237.2109375 410.94140625 C-232.93912347 403.63039414 -228.72518291 396.28828234 -224.53686523 388.92919922 C-220.7582157 382.30049313 -216.91814432 375.70916447 -213.0625 369.125 C-207.82753503 360.18301645 -202.6957223 351.18799976 -197.61572266 342.15722656 C-194.05859694 335.84384528 -190.42862196 329.57981154 -186.73510742 323.34545898 C-183.45666094 317.80255258 -180.25102604 312.22005678 -177.0625 306.625 C-169.73529287 293.77006675 -162.32045262 280.96772783 -154.85498047 268.19262695 C-149.36701932 258.8006041 -143.92082232 249.38748832 -138.53930664 239.93408203 C-134.15137356 232.23760823 -129.68401775 224.5886155 -125.2109375 216.94140625 C-120.93912347 209.63039414 -116.72518291 202.28828234 -112.53686523 194.92919922 C-108.7582157 188.30049313 -104.91814432 181.70916447 -101.0625 175.125 C-95.82753503 166.18301645 -90.6957223 157.18799976 -85.61572266 148.15722656 C-82.05859694 141.84384528 -78.42862196 135.57981154 -74.73510742 129.34545898 C-71.45666094 123.80255258 -68.25102604 118.22005678 -65.0625 112.625 C-57.73529287 99.77006675 -50.32045262 86.96772783 -42.85498047 74.19262695 C-37.36999948 64.8057043 -31.92659648 55.39778939 -26.5480957 45.94946289 C-22.07379616 38.10141814 -17.52037001 30.30047523 -12.96044922 22.50195312 C-8.5924812 15.02806587 -4.26919552 7.53075483 0 0 Z " fill="#098E50" transform="translate(900,448)"/>
<path d="M0 0 C173.79094077 0 173.79094077 0 213 33 C213.69351563 33.55429688 214.38703125 34.10859375 215.1015625 34.6796875 C234.67165076 50.62887838 246.36311633 75.21428058 253 99 C253.19352051 99.68400879 253.38704102 100.36801758 253.58642578 101.07275391 C258.69514517 120.21459361 258.16022706 145.00749763 253 164 C252.7834375 164.93199219 252.566875 165.86398437 252.34375 166.82421875 C244.23359504 199.89241012 224.37871184 225.97792791 195.83203125 244 C185.7395472 250.05810168 175.47166095 254.50498258 164.125 257.625 C163.04653809 257.92422363 161.96807617 258.22344727 160.85693359 258.53173828 C109.71603339 272.2198694 48.19670803 265 0 265 C0 177.55 0 90.1 0 0 Z " fill="#111920" transform="translate(116,1474)"/>
<path d="M0 0 C0.85239258 0.19335938 1.70478516 0.38671875 2.58300781 0.5859375 C30.42454758 7.0223691 56.96248949 20.2933333 77 41 C75.40584497 44.91209308 72.86106668 47.37218086 69.875 50.3125 C69.3814502 50.79960449 68.88790039 51.28670898 68.37939453 51.78857422 C65.01581588 55.08228301 61.54079253 58.20397699 57.9609375 61.2578125 C55.71368115 63.2543789 53.61105073 65.36012946 51.5 67.5 C46.3191998 72.74343509 40.93553157 77.62369195 35 82 C34.23558594 81.3709375 33.47117187 80.741875 32.68359375 80.09375 C19.08672867 69.13055074 4.55117227 62.42128393 -12 57 C-13.08539062 56.63648438 -14.17078125 56.27296875 -15.2890625 55.8984375 C-35.04812464 50.32002154 -59.93502512 53.07210639 -77.9765625 62.56640625 C-96.31813689 73.7005169 -106.7964372 89.7497188 -112.24609375 110.33984375 C-116.89499907 132.90991777 -111.80875492 156.3803661 -100 176 C-89.00903214 191.99214901 -72.75084547 201.44935666 -53.85546875 205.26953125 C-34.46041884 208.57244267 -15.38632219 205.49022597 2.59375 197.953125 C5 197 5 197 7 197 C7 188.42 7 179.84 7 171 C-11.81 171 -30.62 171 -50 171 C-50 153.18 -50 135.36 -50 117 C-8.42 117 33.16 117 76 117 C76.226875 134.139375 76.45375 151.27875 76.6875 168.9375 C76.83771606 177.03720337 76.83771606 177.03720337 76.9909668 185.30053711 C77.04064941 191.92492676 77.04064941 191.92492676 77.04988098 195.03199768 C77.06670774 197.18935643 77.10526528 199.34661541 77.16133118 201.50331116 C77.63485439 220.68736729 77.63485439 220.68736729 73.60757446 225.3767395 C70.83061633 227.67986154 68.20112787 229.35882697 65 231 C63.75405837 231.89373259 62.51967991 232.80456617 61.3125 233.75 C51.75046086 240.36649471 41.61466189 245.30658152 31 250 C30.06542969 250.43183594 29.13085938 250.86367187 28.16796875 251.30859375 C9.27271284 259.58130375 -13.29007301 261.53357659 -33.65136719 261.39111328 C-36.3670502 261.37504703 -39.08123675 261.39106651 -41.796875 261.41015625 C-57.95775403 261.43053854 -74.29268372 260.01096127 -89.8125 255.25 C-91.10329468 254.86593994 -91.10329468 254.86593994 -92.42016602 254.47412109 C-110.41127385 248.94224307 -126.82349643 240.4581395 -141 228 C-141.83015625 227.31421875 -142.6603125 226.6284375 -143.515625 225.921875 C-161.56930417 210.59327948 -174.2023081 187.82382509 -180 165 C-180.26554688 164.01257812 -180.53109375 163.02515625 -180.8046875 162.0078125 C-183.52085466 151.63464077 -184.21137881 141.86966257 -184.24023438 131.17626953 C-184.2498543 129.03246952 -184.28091155 126.88966637 -184.3125 124.74609375 C-184.41263751 111.7839219 -182.58663525 99.29000821 -178.3125 87 C-178.05903809 86.25927246 -177.80557617 85.51854492 -177.54443359 84.75537109 C-166.25326914 52.92742763 -143.44155006 27.11202976 -113.26074219 12.06298828 C-79.80708124 -3.66673523 -36.19992358 -8.65411772 0 0 Z " fill="#101820" transform="translate(698,1477)"/>
<path d="M0 0 C5.20387268 0.23000542 8.2664578 3.2973027 12.0625 6.5 C13.40897409 7.60690832 14.75664288 8.7123649 16.10546875 9.81640625 C16.76853027 10.36184082 17.4315918 10.90727539 18.11474609 11.46923828 C20.65090021 13.52850872 23.25254907 15.4897045 25.875 17.4375 C30.67536615 21.0040371 35.43970659 24.61374628 40.1875 28.25 C40.9079248 28.80163818 41.62834961 29.35327637 42.37060547 29.92163086 C43.84532952 31.05111982 45.31993803 32.18075965 46.79443359 33.31054688 C50.36119432 36.04266822 53.93070359 38.77119272 57.5 41.5 C58.91668053 42.5833152 60.33334718 43.66664855 61.75 44.75 C62.45125 45.28625 63.1525 45.8225 63.875 46.375 C66 48 68.125 49.625 70.25 51.25 C70.95157227 51.7864917 71.65314453 52.3229834 72.37597656 52.87573242 C73.78940651 53.95660017 75.20281804 55.03749201 76.61621094 56.1184082 C80.20724701 58.86466505 83.7986248 61.61047303 87.390625 64.35546875 C94.8165762 70.03101716 102.23477953 75.71620464 109.640625 81.41796875 C115.68637123 86.0684032 121.75016216 90.69533244 127.81054688 95.32666016 C132.07953838 98.58933498 136.34727434 101.85365187 140.61523438 105.11767578 C144.20660543 107.86416439 147.79830151 110.61022598 151.390625 113.35546875 C152.12087891 113.91363281 152.85113281 114.47179688 153.60351562 115.046875 C154.96146451 116.08479771 156.31952335 117.1225766 157.67773438 118.16015625 C164.12982727 123.09219086 170.56279492 128.04830378 177 133 C177.33 90.1 177.66 47.2 178 3 C200.44 3 222.88 3 246 3 C246 88.8 246 174.6 246 263 C241 264 241 264 239.15405273 263.06298828 C238.58630127 262.57040527 238.0185498 262.07782227 237.43359375 261.5703125 C236.46800537 260.75542358 236.46800537 260.75542358 235.48291016 259.92407227 C234.47043213 259.03353149 234.47043213 259.03353149 233.4375 258.125 C231.99756968 256.90580679 230.55615436 255.68836534 229.11328125 254.47265625 C228.40896973 253.87340332 227.7046582 253.27415039 226.97900391 252.65673828 C224.43216455 250.5246322 221.79835665 248.53293211 219.125 246.5625 C214.12888069 242.86442522 209.21235507 239.07466967 204.3125 235.25 C198.39838061 230.63544848 192.46563737 226.04776412 186.5 221.5 C179.87809411 216.45078715 173.29753153 211.35074317 166.73046875 206.23046875 C161.67468555 202.29237165 156.59603182 198.38584244 151.5 194.5 C144.87816309 189.45069579 138.29753257 184.35074398 131.73046875 179.23046875 C126.67468555 175.29237165 121.59603182 171.38584244 116.5 167.5 C110.64104837 163.03241351 104.81070854 158.53014955 99 154 C92.93149816 149.27227512 86.8526088 144.55864556 80.75 139.875 C80.0590625 139.34261719 79.368125 138.81023437 78.65625 138.26171875 C78.00140625 137.76027344 77.3465625 137.25882813 76.671875 136.7421875 C75.82254395 136.09032471 75.82254395 136.09032471 74.95605469 135.42529297 C72.36178122 133.53495741 69.67081967 131.78054644 67 130 C67 173.56 67 217.12 67 262 C44.56 262 22.12 262 -1 262 C-1.02202623 228.76716361 -1.04049776 195.53433427 -1.05106533 162.30149278 C-1.05231611 158.3822289 -1.05361042 154.46296503 -1.05493164 150.54370117 C-1.05519395 149.76341303 -1.05545626 148.98312488 -1.05572652 148.17919164 C-1.06008339 135.52810579 -1.06797104 122.87702447 -1.0771528 110.22594131 C-1.08648886 97.25452442 -1.09205551 84.28310991 -1.09408849 71.31168979 C-1.09546382 63.30112309 -1.09981493 55.29056917 -1.10791647 47.2800064 C-1.113804 41.14796328 -1.11445908 35.01592999 -1.11310768 28.88388443 C-1.11338422 26.36065148 -1.11539203 23.83741808 -1.11920547 21.314188 C-1.1241356 17.88571501 -1.12300082 14.45729798 -1.12025452 11.02882385 C-1.12316736 10.01619919 -1.1260802 9.00357453 -1.12908131 7.96026427 C-1.12709026 7.04910697 -1.12509921 6.13794968 -1.12304783 5.19918156 C-1.12342755 4.40670523 -1.12380727 3.6142289 -1.1241985 2.79773813 C-1 1 -1 1 0 0 Z " fill="#101820" transform="translate(1375,1474)"/>
<path d="M0 0 C67.98 0 135.96 0 206 0 C206 18.48 206 36.96 206 56 C160.46 56 114.92 56 68 56 C68 72.5 68 89 68 106 C103.64 106 139.28 106 176 106 C176 124.48 176 142.96 176 162 C140.36 162 104.72 162 68 162 C68 177.18 68 192.36 68 208 C113.54 208 159.08 208 206 208 C206 226.48 206 244.96 206 264 C138.02 264 70.04 264 0 264 C0 176.88 0 89.76 0 0 Z " fill="#101820" transform="translate(1131,1474)"/>
<path d="M0 0 C74.58 0 149.16 0 226 0 C226 18.48 226 36.96 226 56 C199.93 56 173.86 56 147 56 C147 124.64 147 193.28 147 264 C124.23 264 101.46 264 78 264 C78 195.36 78 126.72 78 56 C52.26 56 26.52 56 0 56 C0 37.52 0 19.04 0 0 Z " fill="#101820" transform="translate(1658,1474)"/>
<path d="M0 0 C22.77 0 45.54 0 69 0 C69 68.64 69 137.28 69 208 C104.64 208 140.28 208 177 208 C177 226.48 177 244.96 177 264 C118.59 264 60.18 264 0 264 C0 176.88 0 89.76 0 0 Z " fill="#101820" transform="translate(917,1474)"/>
<path d="M0 0 C22.77 0 45.54 0 69 0 C69 87.45 69 174.9 69 265 C46.23 265 23.46 265 0 265 C0 177.55 0 90.1 0 0 Z " fill="#121A22" transform="translate(812,1474)"/>
<path d="M0 0 C22.44 0 44.88 0 68 0 C68 87.12 68 174.24 68 264 C45.56 264 23.12 264 0 264 C0 176.88 0 89.76 0 0 Z " fill="#101820" transform="translate(409,1474)"/>
<path d="M0 0 C76.64560268 0 76.64560268 0 98.2734375 21.14453125 C109.08884812 32.47127218 114.57959466 45.96775703 118 61 C118.19078125 61.78632812 118.3815625 62.57265625 118.578125 63.3828125 C121.83222141 83.57026244 116.87726202 106.26625751 105 123 C93.11598181 138.60661935 77.2096936 147.27875045 58 151 C38.81310989 153.39836126 19.33620668 152 0 152 C0 101.84 0 51.68 0 0 Z " fill="#FDFDFD" transform="translate(184,1530)"/>
<path d="M0 0 C7.92 0 15.84 0 24 0 C30.74329738 11.23882897 30.74329738 11.23882897 33.59375 16.44140625 C33.9071936 17.01165024 34.22063721 17.58189423 34.5435791 18.16941833 C35.53087711 19.96611829 36.51566437 21.76417567 37.5 23.5625 C44.91640072 37.0897059 52.46161896 50.53860529 60 64 C59.67 42.88 59.34 21.76 59 0 C66.26 0 73.52 0 81 0 C81 32.01 81 64.02 81 97 C73.08 97 65.16 97 57 97 C51.37641723 88.00226757 51.37641723 88.00226757 48.94140625 83.62890625 C48.12506714 82.16662598 48.12506714 82.16662598 47.29223633 80.67480469 C46.72142334 79.64774414 46.15061035 78.62068359 45.5625 77.5625 C44.32815596 75.35024314 43.09377998 73.13800411 41.859375 70.92578125 C40.91094727 69.22349365 40.91094727 69.22349365 39.94335938 67.48681641 C36.7391716 61.73779508 33.52621272 55.99370182 30.3125 50.25 C29.72476807 49.19756104 29.13703613 48.14512207 28.53149414 47.06079102 C27.98098389 46.07651123 27.43047363 45.09223145 26.86328125 44.078125 C26.38157471 43.21606445 25.89986816 42.35400391 25.40356445 41.46582031 C23.97344321 38.9533443 22.49690374 36.47316937 21 34 C20.92985345 44.70027099 21.1420705 55.36905578 21.5 66.0625 C21.84458861 76.3828132 22.05432095 86.6722298 22 97 C14.74 97 7.48 97 0 97 C0 64.99 0 32.98 0 0 Z " fill="#010101" transform="translate(788,1805)"/>
<path d="M0 0 C56.31983806 0 56.31983806 0 66.1171875 8.9296875 C73.14644507 16.65895413 73.61452097 23.44973318 73.3828125 33.5234375 C72.97036267 40.63003708 70.107058 45.3661775 65.75 50.8125 C58.01039807 56.96900154 51.53656311 59.16391545 41.734375 59.09765625 C41.03070801 59.09664917 40.32704102 59.09564209 39.60205078 59.09460449 C36.98468384 59.08939005 34.36734021 59.07542881 31.75 59.0625 C25.8925 59.041875 20.035 59.02125 14 59 C14 72.2 14 85.4 14 99 C9.38 99 4.76 99 0 99 C0 66.33 0 33.66 0 0 Z " fill="#050505" transform="translate(116,1803)"/>
<path d="M0 0 C54.2972973 0 54.2972973 0 65.875 9.3125 C70.68866939 15.400376 72.73996284 20.99965874 72.625 28.75 C72.615896 29.5327832 72.60679199 30.31556641 72.59741211 31.12207031 C72.27570901 39.30324058 70.01546403 46.23268262 63.9140625 51.95703125 C61.63081865 53.60337024 59.57140494 54.84572489 57 56 C56.45110107 56.26707764 55.90220215 56.53415527 55.33666992 56.80932617 C47.26708493 60.16221658 38.50099598 59.32150845 29.9375 59.1875 C24.348125 59.125625 18.75875 59.06375 13 59 C13 72.2 13 85.4 13 99 C8.71 99 4.42 99 0 99 C0 66.33 0 33.66 0 0 Z " fill="#010101" transform="translate(970,1803)"/>
<path d="M0 0 C3.96 0 7.92 0 12 0 C12 32.67 12 65.34 12 99 C8.04 99 4.08 99 0 99 C-0.495 95.04 -0.495 95.04 -1 91 C-1.4125 91.47050781 -1.825 91.94101563 -2.25 92.42578125 C-7.30724553 97.87812409 -11.43741026 100.56282878 -18.89453125 101.27734375 C-26.59169957 101.51939307 -32.10467642 100.44590085 -38.6875 96.3125 C-46.57261549 88.42738451 -49.3365064 78.44057499 -49.46826172 67.50024414 C-49.45811035 66.53078857 -49.44795898 65.56133301 -49.4375 64.5625 C-49.42992676 63.54986084 -49.42235352 62.53722168 -49.41455078 61.49389648 C-49.25748633 54.39102943 -48.63852481 48.24556751 -45 42 C-44.57589844 41.25878906 -44.15179687 40.51757812 -43.71484375 39.75390625 C-40.24924791 34.49276494 -36.06000814 30.87653661 -30 29 C-21.63701538 27.88126741 -14.50877622 28.36051035 -7.05078125 32.41796875 C-5 34 -5 34 -1 39 C-0.67 26.13 -0.34 13.26 0 0 Z " fill="#050505" transform="translate(1224,1803)"/>
<path d="M0 0 C0.79647949 0.00829834 1.59295898 0.01659668 2.41357422 0.02514648 C8.39174609 0.19722867 13.12840944 0.95754608 18.125 4.4375 C18.81722656 4.90027344 19.50945312 5.36304688 20.22265625 5.83984375 C27.07649736 11.07950919 31.32564834 19.04184378 33.125 27.4375 C33.95147026 41.10813099 33.30101991 52.44768812 24.1953125 63.42578125 C16.77315277 70.63787986 8.94422785 72.81484477 -1.1105957 72.89282227 C-9.24366585 72.72014379 -15.49139706 70.07842641 -21.765625 64.8671875 C-30.14725584 56.10457344 -32.20751443 44.70913125 -32.0859375 33.07421875 C-31.45826189 22.25262623 -27.46636372 13.40575288 -19.4375 6.0625 C-13.56854172 1.03196433 -7.46753139 -0.09997644 0 0 Z " fill="#060606" transform="translate(1129.875,1831.5625)"/>
<path d="M0 0 C8.20401234 5.49077315 12.90445885 13.21759429 15.6875 22.5625 C16.20864378 26.25141305 16.25002802 29.84208282 16.1875 33.5625 C16.21070313 34.94308594 16.21070313 34.94308594 16.234375 36.3515625 C16.17373338 47.1154507 12.42241719 54.69757879 5.0703125 62.42578125 C-3.13207011 69.78103254 -12.75473113 70.32858678 -23.25390625 69.77587891 C-31.19176718 68.95309778 -36.71197898 63.96966984 -41.62109375 58.0390625 C-49.12357328 47.05390772 -49.99430837 33.09653526 -47.734375 20.28515625 C-45.4215198 12.95761046 -40.93154022 7.68411699 -35.3125 2.5625 C-34.69117188 1.99015625 -34.06984375 1.4178125 -33.4296875 0.828125 C-24.87665206 -5.33560095 -9.10402147 -4.52044339 0 0 Z " fill="#040404" transform="translate(445.3125,1834.4375)"/>
<path d="M0 0 C5.79936845 7.08811699 6.29549324 14.96822505 6.4140625 23.75 C6.43342865 24.64871826 6.4527948 25.54743652 6.4727478 26.47338867 C6.53204608 29.31549896 6.57872808 32.15765085 6.625 35 C6.66322567 36.93881876 6.70228 38.87762138 6.7421875 40.81640625 C6.8377061 45.5441381 6.9219186 50.27194932 7 55 C8.98 55.66 10.96 56.32 13 57 C13 59.97 13 62.94 13 66 C9.27860473 67.86069764 5.0523723 67.56886614 1 67 C-2.69955202 64.24501445 -4.81286437 61.02893405 -7 57 C-7.50789063 57.47050781 -8.01578125 57.94101563 -8.5390625 58.42578125 C-9.22742187 59.04839844 -9.91578125 59.67101563 -10.625 60.3125 C-11.63433594 61.23482422 -11.63433594 61.23482422 -12.6640625 62.17578125 C-17.84170158 66.21918835 -21.94441794 67.41497306 -28.5 67.375 C-29.7684375 67.38273437 -31.036875 67.39046875 -32.34375 67.3984375 C-38.83903999 66.69061744 -42.75269581 63.82126422 -47 59 C-50.75242519 53.5053774 -51.66287614 48.64081374 -51 42 C-49.36785715 35.02162547 -45.90063474 31.40540441 -40.4375 26.875 C-35.51971353 24.19257102 -30.43939668 23.20875482 -25 22 C-15.90545607 19.82868775 -15.90545607 19.82868775 -7 17 C-7.24471637 11.32779015 -7.24471637 11.32779015 -9.9375 6.5625 C-14.58436776 3.04214564 -19.35571235 3.57062819 -25 4 C-30.21716363 5.22927603 -33.37045826 8.17426682 -37 12 C-38.875 13.5625 -38.875 13.5625 -41 14 C-43.55275125 12.90043831 -45.65562502 11.53286056 -48 10 C-45.02844533 3.87116849 -39.56695461 -1.06798058 -33.375 -3.875 C-22.32546188 -7.55817937 -9.3572735 -7.65595104 0 0 Z " fill="#070707" transform="translate(1604,1837)"/>
<path d="M0 0 C5.12170939 2.96850095 7.5992105 7.34048205 10.5625 12.3125 C11.119375 11.63703125 11.67625 10.9615625 12.25 10.265625 C17.58183384 4.03314355 21.86627687 -0.90239007 30.2265625 -2.0546875 C38.18225739 -2.42726825 43.14324888 -0.27093418 49.375 4.4375 C54.99361613 11.82196691 54.98278854 20.73561198 54.85546875 29.6640625 C54.85122391 30.80410736 54.84697906 31.94415222 54.84260559 33.1187439 C54.82594334 36.72524613 54.78831395 40.33116943 54.75 43.9375 C54.73493709 46.39712729 54.72125151 48.85676343 54.70898438 51.31640625 C54.67608057 57.31532392 54.62438465 63.31381414 54.5625 69.3125 C50.6025 69.3125 46.6425 69.3125 42.5625 69.3125 C42.5531543 67.77392334 42.54380859 66.23534668 42.53417969 64.65014648 C42.49422358 58.92654772 42.42844783 53.20348325 42.35498047 47.48022461 C42.32680368 45.00601072 42.30557285 42.53170737 42.29150391 40.05737305 C42.27002978 36.49481513 42.22335325 32.93332917 42.171875 29.37109375 C42.17064636 28.26978622 42.16941772 27.1684787 42.16815186 26.03379822 C42.04633911 19.60574936 41.43334013 15.52431615 37.5625 10.3125 C33.70666381 7.91562885 30.02482042 7.92106838 25.5625 8.3125 C20.41957336 10.16395359 17.69522089 12.87447875 14.5625 17.3125 C12.15509518 22.78425804 12.21800114 28.08793458 12.1484375 33.9609375 C12.12907135 34.97346588 12.1097052 35.98599426 12.0897522 37.02920532 C12.03019277 40.24855242 11.98366552 43.46793574 11.9375 46.6875 C11.89929849 48.87631728 11.8602455 51.06511988 11.8203125 53.25390625 C11.72451058 58.60665093 11.64039225 63.95946596 11.5625 69.3125 C7.6025 69.3125 3.6425 69.3125 -0.4375 69.3125 C-0.45208252 67.90556885 -0.46666504 66.4986377 -0.48168945 65.04907227 C-0.53992818 59.79882161 -0.61715923 54.54898839 -0.69995117 49.29907227 C-0.73308052 47.03253994 -0.76114928 44.76592749 -0.78393555 42.49926758 C-0.81770235 39.22963512 -0.87002972 35.96072902 -0.92578125 32.69140625 C-0.93217117 31.68791641 -0.9385611 30.68442657 -0.94514465 29.65052795 C-1.0713605 23.52714915 -1.68560412 17.86985743 -4.4375 12.3125 C-7.75904928 9.14544138 -9.7780595 8.40822523 -14.3125 7.75 C-19.29074777 8.06411506 -22.79292781 9.98555945 -26.4375 13.3125 C-31.05700155 20.05831922 -32.17759576 26.32573586 -32.14453125 34.3515625 C-32.15965256 35.35843109 -32.17477386 36.36529968 -32.19035339 37.40267944 C-32.23293385 40.58118608 -32.24203983 43.75873764 -32.25 46.9375 C-32.2731673 49.10809779 -32.29853724 51.27867324 -32.32617188 53.44921875 C-32.38873145 58.7370625 -32.42129808 64.02431929 -32.4375 69.3125 C-36.3975 69.3125 -40.3575 69.3125 -44.4375 69.3125 C-44.4375 46.5425 -44.4375 23.7725 -44.4375 0.3125 C-40.4775 0.3125 -36.5175 0.3125 -32.4375 0.3125 C-32.1075 3.9425 -31.7775 7.5725 -31.4375 11.3125 C-30.7775 10.260625 -30.1175 9.20875 -29.4375 8.125 C-22.85174879 -1.15150099 -10.48926892 -4.88973438 0 0 Z " fill="#070707" transform="translate(1677.4375,1832.6875)"/>
<path d="M0 0 C0.86431641 -0.02900391 1.72863281 -0.05800781 2.61914062 -0.08789062 C9.88799084 -0.15920765 15.2942256 1.4953644 20.5625 6.625 C24.36508965 12.91389826 24.48921098 19.17693467 24.53125 26.33203125 C24.5458728 27.2718132 24.56049561 28.21159515 24.57556152 29.17985535 C24.6375782 33.17795658 24.6776254 37.17620297 24.71923828 41.17456055 C24.75285959 44.10221865 24.79796586 47.02954227 24.84375 49.95703125 C24.8490271 50.86532181 24.8543042 51.77361237 24.85974121 52.70942688 C24.87315552 53.54757431 24.88656982 54.38572174 24.90039062 55.24926758 C24.90768188 55.9876033 24.91497314 56.72593903 24.92248535 57.48664856 C25.03777938 59.56158256 25.03777938 59.56158256 27.1875 61.3125 C29.75811311 61.96017793 29.75811311 61.96017793 32.1875 62.3125 C32.21439216 63.79156892 32.23384621 65.27077483 32.25 66.75 C32.26160156 67.57371094 32.27320313 68.39742187 32.28515625 69.24609375 C32.1875 71.3125 32.1875 71.3125 31.1875 72.3125 C26.1664844 72.82639589 21.68578656 73.12407189 17.1875 70.6875 C14.96966147 68.05381675 13.54983987 65.46739234 12.1875 62.3125 C11.67960937 62.78300781 11.17171875 63.25351563 10.6484375 63.73828125 C9.96007812 64.36089844 9.27171875 64.98351563 8.5625 65.625 C7.55316406 66.54732422 7.55316406 66.54732422 6.5234375 67.48828125 C-0.56985062 73.02768853 -7.1086414 73.06318244 -15.8125 72.3125 C-18.64862613 71.64460682 -20.25341305 70.83706244 -22.8125 69.3125 C-23.699375 68.796875 -24.58625 68.28125 -25.5 67.75 C-30.09001413 62.911877 -32.01686573 56.79339685 -32.3125 50.1875 C-32.01552654 44.2665917 -30.32243724 39.7613547 -26.046875 35.58984375 C-19.12419003 30.04351937 -11.30330964 28.01289588 -2.75 26.25 C2.63189914 25.11911993 7.91655895 23.88748238 13.1875 22.3125 C12.878125 21.054375 12.56875 19.79625 12.25 18.5 C12.07597656 17.79230469 11.90195313 17.08460937 11.72265625 16.35546875 C11.27739295 14.65566798 10.74316015 12.97948046 10.1875 11.3125 C4.0353378 8.77138953 -3.49145427 7.88833512 -9.8984375 10 C-14.23808163 12.27404933 -16.93454764 15.47523018 -19.8125 19.3125 C-23.68098614 18.19493734 -26.10172757 17.28376708 -28.8125 14.3125 C-24.66472645 7.98086083 -20.1815757 2.84652163 -12.6796875 0.703125 C-8.45211016 0.12716078 -4.26256208 0.04704815 0 0 Z " fill="#050505" transform="translate(224.8125,1831.6875)"/>
<path d="M0 0 C0.78979248 0.01135986 1.57958496 0.02271973 2.39331055 0.03442383 C9.89127398 0.28448497 14.98932184 1.98558151 20.8125 6.75 C29.57902294 17.46463914 31.0625 26.28009211 31.0625 40.5 C14.8925 40.5 -1.2775 40.5 -17.9375 40.5 C-15.8895071 51.67260487 -15.8895071 51.67260487 -9.25390625 59.7421875 C-3.98609673 62.81595966 1.06859234 63.31597735 7.0625 62.5 C12.38740688 60.69154106 14.73183737 57.82085963 18.0625 53.5 C19.0525 52.51 20.0425 51.52 21.0625 50.5 C23.7025 52.15 26.3425 53.8 29.0625 55.5 C25.47746886 62.81943857 20.72822704 67.43386294 13.625 71.4375 C5.43391461 74.0164754 -5.68204899 74.07762807 -13.5625 70.5 C-21.95313731 65.41995428 -27.07312596 57.66970687 -29.51953125 48.26171875 C-31.37029907 36.03281365 -31.16413706 22.06784187 -23.94921875 11.62109375 C-17.15832684 3.56350698 -10.57366279 -0.25816918 0 0 Z " fill="#090909" transform="translate(706.9375,1831.5)"/>
<path d="M0 0 C0.70487549 0.00612305 1.40975098 0.01224609 2.13598633 0.01855469 C7.9462699 0.19237516 12.31510727 1.32699929 17.1875 4.4375 C18.074375 4.97375 18.96125 5.51 19.875 6.0625 C26.71630519 13.08870533 29.56208701 20.58175551 29.46875 30.23046875 C28.79976738 37.85872894 25.54591514 44.07908486 20.1875 49.4375 C11.84953123 55.82402927 3.42443998 56.45588988 -6.8125 55.4375 C-13.85896953 53.37422003 -18.74810033 49.47059325 -22.8125 43.4375 C-23.225 42.87675781 -23.6375 42.31601563 -24.0625 41.73828125 C-28.09383985 35.28533795 -27.6875556 27.76318669 -26.8125 20.4375 C-24.32325308 11.78822728 -18.59066928 6.31250016 -11.046875 1.7734375 C-7.28844611 0.22104296 -4.00336487 -0.05906213 0 0 Z " fill="#F6F6F7" transform="translate(1854.8125,1682.5625)"/>
<path d="M0 0 C19.47 0 38.94 0 59 0 C57 10 57 10 56 11 C54.64905018 11.09268999 53.29332909 11.11747326 51.93920898 11.11352539 C51.07839218 11.11344986 50.21757538 11.11337433 49.33067322 11.11329651 C48.39526199 11.10813522 47.45985077 11.10297394 46.49609375 11.09765625 C45.54307877 11.0962413 44.59006378 11.09482635 43.60816956 11.09336853 C40.55124835 11.08775152 37.49439923 11.07519616 34.4375 11.0625 C32.37044376 11.05748719 30.30338638 11.05292391 28.23632812 11.04882812 C23.15750167 11.03862558 18.07883194 11.01905356 13 11 C13 21.89 13 32.78 13 44 C25.54 44 38.08 44 51 44 C51 47.63 51 51.26 51 55 C38.46 55 25.92 55 13 55 C13 69.52 13 84.04 13 99 C8.71 99 4.42 99 0 99 C0 66.33 0 33.66 0 0 Z " fill="#000000" transform="translate(1494,1803)"/>
<path d="M0 0 C3.63 0 7.26 0 11 0 C11.33 13.53 11.66 27.06 12 41 C14.31 38.36 16.62 35.72 19 33 C24.84942653 28.52197012 30.88864739 27.22568237 38.171875 27.58984375 C45.3631013 28.63277022 49.42089161 31.83395637 53.7734375 37.51171875 C57.38555381 44.83948338 57.27415785 52.81744941 57.1953125 60.81640625 C57.1924826 61.91347397 57.18965271 63.01054169 57.18673706 64.14085388 C57.17561997 67.61485098 57.15053112 71.08858197 57.125 74.5625 C57.11495925 76.9303348 57.10583532 79.29817367 57.09765625 81.66601562 C57.07570839 87.44411159 57.04123736 93.22201081 57 99 C53.04 99 49.08 99 45 99 C44.98541748 97.52200928 44.97083496 96.04401855 44.95581055 94.52124023 C44.89770157 89.02132352 44.8204687 83.5218108 44.73754883 78.0222168 C44.70435885 75.64500501 44.67630859 73.26771554 44.65356445 70.89038086 C44.61991014 67.46694942 44.56758699 64.04422604 44.51171875 60.62109375 C44.50532883 59.56353378 44.4989389 58.50597382 44.49235535 57.41636658 C44.37587375 51.52872695 43.89347763 47.17509766 41 42 C37.60592655 38.92165431 35.62987064 38.06998563 31.0625 37.5625 C25.15851525 37.92236193 20.71373496 39.91180495 16.6875 44.25 C11.51378293 50.20331827 11.67900693 57.84514757 11.5859375 65.30859375 C11.56657135 66.27531509 11.5472052 67.24203644 11.5272522 68.23805237 C11.46780809 71.30444713 11.42121231 74.37088016 11.375 77.4375 C11.33678783 79.52540636 11.29773424 81.6132975 11.2578125 83.70117188 C11.16213562 88.80065662 11.07797545 93.90021511 11 99 C7.37 99 3.74 99 0 99 C0 66.33 0 33.66 0 0 Z " fill="#030303" transform="translate(603,1803)"/>
<path d="M0 0 C7.26 0 14.52 0 22 0 C22 32.01 22 64.02 22 97 C14.74 97 7.48 97 0 97 C0 64.99 0 32.98 0 0 Z " fill="#000000" transform="translate(889,1805)"/>
<path d="M0 0 C3.96 0 7.92 0 12 0 C14.61294159 6.85653943 17.22167839 13.71464282 19.82302856 20.57558918 C21.03108548 23.76127913 22.24097756 26.94624659 23.45507812 30.12963867 C24.85053112 33.78878166 26.23797727 37.45093394 27.625 41.11328125 C28.06247559 42.2571077 28.49995117 43.40093414 28.95068359 44.579422 C29.35109863 45.64029526 29.75151367 46.70116852 30.1640625 47.79418945 C30.51936035 48.72906693 30.8746582 49.6639444 31.24072266 50.62715149 C32 53 32 53 32 56 C32.66 56 33.32 56 34 56 C34.10127197 55.05398926 34.20254395 54.10797852 34.30688477 53.13330078 C35.01504839 48.21015655 36.56167633 43.58770959 38.08984375 38.8671875 C38.54672325 37.43489304 38.54672325 37.43489304 39.01283264 35.97366333 C39.65494994 33.96419023 40.29973011 31.95556631 40.94702148 29.94775391 C41.93596766 26.87975375 42.91693344 23.80929253 43.89648438 20.73828125 C44.52297442 18.78110171 45.14991232 16.82406546 45.77734375 14.8671875 C46.07011703 13.95250702 46.36289032 13.03782654 46.66453552 12.09542847 C46.9414473 11.23748688 47.21835907 10.37954529 47.50366211 9.49560547 C47.74491318 8.74616669 47.98616425 7.99672791 48.23472595 7.22457886 C49.07353108 4.78625216 50.04234258 2.39414356 51 0 C54.96 0 58.92 0 63 0 C56.59480796 21.48973224 49.8731774 42.88254844 42.59585571 64.09393311 C41.99465232 65.85187486 41.3988428 67.61167136 40.8086853 69.37335205 C39.97566084 71.85366962 39.12161629 74.32576525 38.26171875 76.796875 C38.02134888 77.52464142 37.780979 78.25240784 37.5333252 79.00222778 C35.3956666 85.01714163 32.04003756 89.92298803 26.71875 93.55859375 C19.55878977 96.3948456 12.64661777 96.64873948 5 96 C4 95 4 95 3.90234375 92.71484375 C3.91394531 91.79832031 3.92554688 90.88179687 3.9375 89.9375 C3.94652344 89.01839844 3.95554687 88.09929687 3.96484375 87.15234375 C3.97644531 86.44207031 3.98804688 85.73179688 4 85 C4.95261719 84.97421875 5.90523437 84.9484375 6.88671875 84.921875 C8.14097656 84.86515625 9.39523437 84.8084375 10.6875 84.75 C11.92886719 84.70359375 13.17023438 84.6571875 14.44921875 84.609375 C18.48948724 83.91599559 20.14044089 82.88536741 23 80 C25.05109958 76.92005304 26.17405997 73.6194259 25.77461243 69.9030304 C24.5165587 64.65244604 22.91553651 59.68182756 20.91796875 54.66796875 C20.62191238 53.91010574 20.32585602 53.15224274 20.02082825 52.37141418 C19.08250904 49.97431954 18.13504733 47.5809595 17.1875 45.1875 C16.56387886 43.59592802 15.94082785 42.00413252 15.31835938 40.41210938 C12.30841503 32.73317745 9.23471347 25.08646579 6.03881836 17.48266602 C4.70603944 14.29746535 3.43361018 11.09510695 2.1875 7.875 C1.76855469 6.79992188 1.34960938 5.72484375 0.91796875 4.6171875 C0 2 0 2 0 0 Z " fill="#060606" transform="translate(1821,1833)"/>
<path d="M0 0 C3.63 0 7.26 0 11 0 C11.01458252 1.43722412 11.02916504 2.87444824 11.04418945 4.35522461 C11.10241755 9.71728669 11.17964884 15.07893958 11.26245117 20.44067383 C11.29558546 22.75571014 11.32365272 25.070825 11.34643555 27.38598633 C11.3801931 30.72511078 11.43252031 34.06352281 11.48828125 37.40234375 C11.49467117 38.42770737 11.5010611 39.45307098 11.50764465 40.50950623 C11.63210292 46.67349878 12.20191789 52.41133552 15 58 C19.2722958 61.52464403 24.02937889 61.51460215 29.37890625 61.34765625 C34.60478902 60.65450637 37.14674627 58.11397014 40.25 54.0625 C43.90179802 47.67185346 44.32847869 42.71298575 44.4140625 35.44921875 C44.43342865 34.43527542 44.4527948 33.42133209 44.4727478 32.37666321 C44.53239426 29.14702697 44.57886951 25.9173548 44.625 22.6875 C44.66319349 20.49412532 44.70224602 18.30076542 44.7421875 16.10742188 C44.83808368 10.73840167 44.92217014 5.36931126 45 0 C48.63 0 52.26 0 56 0 C56 22.77 56 45.54 56 69 C52.37 69 48.74 69 45 69 C44.67 65.7 44.34 62.4 44 59 C43.030625 60.2375 42.06125 61.475 41.0625 62.75 C36.20729552 68.20485125 31.82792696 70.62580939 24.5234375 71.33984375 C17.3279879 71.52919769 11.80522594 71.35803058 6.171875 66.38671875 C5.46804688 65.54560547 5.46804688 65.54560547 4.75 64.6875 C4.27046875 64.13449219 3.7909375 63.58148437 3.296875 63.01171875 C-0.83753997 56.59839432 -0.26000791 49.72873916 -0.1953125 42.3828125 C-0.1924826 41.17051971 -0.18965271 39.95822693 -0.18673706 38.709198 C-0.17556667 34.84769711 -0.15046737 30.98643047 -0.125 27.125 C-0.11496616 24.50260752 -0.10584102 21.8802114 -0.09765625 19.2578125 C-0.07563754 12.83845178 -0.04112886 6.41926558 0 0 Z " fill="#020202" transform="translate(1260,1833)"/>
<path d="M0 0 C6.68219888 2.89476936 9.26997888 8.04887084 11.984375 14.51171875 C13.78496985 24.6605261 13.9672689 36.48114449 8.34765625 45.515625 C4.81179681 49.96097059 1.10694761 52.93098772 -4.68359375 53.69921875 C-10.79907883 53.99527854 -14.4092584 53.02668003 -19.328125 49.38671875 C-26.85350853 41.44325836 -27.82221526 32.76735062 -27.59765625 22.25390625 C-27.0522038 14.42784934 -25.11036439 8.56749377 -19.203125 3.26171875 C-13.33929019 -1.36296607 -7.2816172 -1.91814413 0 0 Z " fill="#FBFBFB" transform="translate(436.328125,1841.61328125)"/>
<path d="M0 0 C5.18052795 2.53811101 8.33598608 7.37327463 10.87109375 12.41796875 C13.398041 21.13901841 13.6594043 33.97332088 9.80859375 42.23046875 C6.98150127 46.82449404 3.16794454 51.36453714 -2.109375 53.05078125 C-8.22572874 54.16284557 -12.89055887 53.76694351 -18.3046875 50.74609375 C-23.66736572 46.84178841 -25.66183467 41.74511886 -27.12890625 35.41796875 C-27.41760758 32.45362477 -27.46337664 29.51995702 -27.44140625 26.54296875 C-27.4357666 25.74721436 -27.43012695 24.95145996 -27.42431641 24.1315918 C-27.24347764 15.39851179 -25.58731462 9.4390534 -19.7265625 2.828125 C-14.34352539 -1.92316203 -6.69810696 -1.83122557 0 0 Z " fill="#FCFCFC" transform="translate(1138.12890625,1841.58203125)"/>
<path d="M0 0 C25.41 0 50.82 0 77 0 C77 0.33 77 0.66 77 1 C76.030625 1.20753906 75.06125 1.41507812 74.0625 1.62890625 C49.18544605 7.22608669 28.63980504 19.52101022 14.48095703 41.19238281 C7.46201844 52.39466485 3.82305212 64.21323452 1 77 C0.67 77 0.34 77 0 77 C0 51.59 0 26.18 0 0 Z " fill="#000000" transform="translate(0,0)"/>
<path d="M0 0 C0.33 0 0.66 0 1 0 C1.23074219 1.01578125 1.46148437 2.0315625 1.69921875 3.078125 C6.31092388 22.80303289 14.65674094 38.63555444 29 53 C29.65613281 53.66773438 30.31226562 54.33546875 30.98828125 55.0234375 C43.10729708 66.49368375 59.94629162 72.8151514 76 76 C76 76.33 76 76.66 76 77 C50.92 77 25.84 77 0 77 C0 51.59 0 26.18 0 0 Z " fill="#000000" transform="translate(0,1923)"/>
<path d="M0 0 C5.54619509 2.36452205 8.64844278 6.21527628 11.19506836 11.56054688 C12.8031791 16.43414181 12.57216802 21.41816891 12.5 26.5 C12.51546875 27.58925781 12.5309375 28.67851563 12.546875 29.80078125 C12.50942881 37.54278085 11.40096744 43.21875561 6.1484375 49.05859375 C5.56320312 49.51363281 4.97796875 49.96867187 4.375 50.4375 C3.78460937 50.91058594 3.19421875 51.38367187 2.5859375 51.87109375 C-1.83993349 55.02152901 -6.76941652 54.71999935 -12 54 C-17.16549729 51.76304084 -20.09818565 48.42958993 -22.4375 43.375 C-23.00169479 41.93288776 -23.52560933 40.4740953 -24 39 C-24.19207031 38.41863281 -24.38414063 37.83726563 -24.58203125 37.23828125 C-26.20081933 28.56944415 -26.43795584 16.84038865 -22 9 C-15.98339839 0.50113926 -10.39571589 -1.37626499 0 0 Z " fill="#FCFCFC" transform="translate(1212,1841)"/>
<path d="M0 0 C25.41 0 50.82 0 77 0 C77 25.08 77 50.16 77 76 C76.67 76 76.34 76 76 76 C75.8040625 75.04222656 75.608125 74.08445312 75.40625 73.09765625 C70.32170007 49.85568571 58.04855017 29.11112515 37.88671875 15.72265625 C26.00304159 8.63104376 13.78585996 3.10674121 0 1 C0 0.67 0 0.34 0 0 Z " fill="#000000" transform="translate(1923,0)"/>
<path d="M0 0 C0.33 0 0.66 0 1 0 C1 25.08 1 50.16 1 76 C-24.08 76 -49.16 76 -75 76 C-75 75.67 -75 75.34 -75 75 C-73.82566406 74.74347656 -72.65132812 74.48695312 -71.44140625 74.22265625 C-55.37774866 70.4911027 -41.26282239 64.26567248 -29 53 C-28.17242188 52.26394531 -27.34484375 51.52789063 -26.4921875 50.76953125 C-11.86461275 37.05897572 -4.2118425 19.30014888 0 0 Z " fill="#000000" transform="translate(1999,1924)"/>
<path d="M0 0 C5.15573546 3.57640938 10.98901617 8.63412777 12.59375 14.84375 C12.6865625 15.5759375 12.779375 16.308125 12.875 17.0625 C11.58586513 17.73404933 10.29359796 18.39958859 9 19.0625 C8.28070312 19.43375 7.56140625 19.805 6.8203125 20.1875 C4.875 21.0625 4.875 21.0625 2.875 21.0625 C1.76171875 19.453125 1.76171875 19.453125 0.5625 17.3125 C-2.1952982 12.71616966 -4.94007913 9.79080696 -10.125 8.0625 C-16.07340145 7.46304869 -20.889985 7.94162567 -26.125 11.0625 C-33.6227486 18.93811922 -33.65626403 28.13674889 -33.43359375 38.40234375 C-33.07246612 45.90510733 -31.21806757 51.47697221 -25.625 56.625 C-21.02222354 60.31768202 -15.90131249 60.67581503 -10.125 60.0625 C-3.43277092 57.61726245 -0.54781015 53.05241776 2.875 47.0625 C6.83320859 47.62795837 9.5409053 48.87152348 12.875 51.0625 C11.39945768 57.62046588 7.38388962 62.81963832 1.7421875 66.42578125 C-6.85470925 70.78767536 -17.36168716 71.80562187 -26.77734375 69.37890625 C-28.75596144 68.43465503 -30.38522777 67.39242204 -32.125 66.0625 C-32.723125 65.67320313 -33.32125 65.28390625 -33.9375 64.8828125 C-41.23625016 59.56605053 -44.82996824 50.82705839 -46.5625 42.1875 C-48.0153836 30.74416937 -47.26095313 19.13001812 -40.328125 9.58984375 C-31.0121451 -1.51350438 -13.75310769 -7.03366316 0 0 Z " fill="#060606" transform="translate(1381.125,1833.9375)"/>
<path d="M0 0 C0 9.57 0 19.14 0 29 C4.62 29 9.24 29 14 29 C14 32.3 14 35.6 14 39 C9.38 39 4.76 39 0 39 C0.11814221 45.49630228 0.24238325 51.99244819 0.37231445 58.48852539 C0.41566552 60.69910498 0.45734046 62.90971809 0.49731445 65.12036133 C0.55501266 68.29518749 0.61870862 71.46984486 0.68359375 74.64453125 C0.70030624 75.63524124 0.71701874 76.62595123 0.73423767 77.64668274 C0.75418289 78.56741074 0.77412811 79.48813873 0.79467773 80.43676758 C0.81799416 81.65255241 0.81799416 81.65255241 0.84178162 82.89289856 C0.92809721 85.19146683 0.92809721 85.19146683 2 88 C4.43387753 89.21693876 6.41838846 89.31959896 9.125 89.5625 C10.49011719 89.68818359 10.49011719 89.68818359 11.8828125 89.81640625 C12.58148437 89.87699219 13.28015625 89.93757813 14 90 C14 92.97 14 95.94 14 99 C10.96843143 100.51578428 8.12033386 100.24971927 4.75 100.3125 C3.44546875 100.34988281 2.1409375 100.38726563 0.796875 100.42578125 C-3.65175574 99.92691216 -5.63973914 98.92808858 -9 96 C-12.84484508 90.37859878 -12.38641859 84.80367752 -12.29296875 78.2578125 C-12.28872391 77.13430389 -12.28447906 76.01079529 -12.28010559 74.85324097 C-12.2633589 71.27691337 -12.22571296 67.70115631 -12.1875 64.125 C-12.17244803 61.69532066 -12.15876052 59.26563245 -12.14648438 56.8359375 C-12.11346832 50.89040631 -12.06171263 44.94529978 -12 39 C-15.96 39 -19.92 39 -24 39 C-24 35.7 -24 32.4 -24 29 C-20.04 29 -16.08 29 -12 29 C-12.17402344 26.61394531 -12.17402344 26.61394531 -12.3515625 24.1796875 C-13.20200107 7.59613547 -13.20200107 7.59613547 -9.84375 3.13671875 C-6.59318619 1.25456758 -3.78864719 0 0 0 Z " fill="#060606" transform="translate(571,1804)"/>
<path d="M0 0 C4.599375 -0.061875 9.19875 -0.12375 13.9375 -0.1875 C15.36956787 -0.21481201 16.80163574 -0.24212402 18.27709961 -0.27026367 C33.85530979 -0.37131505 33.85530979 -0.37131505 40.15625 4.75390625 C40.5996875 5.35074219 41.043125 5.94757813 41.5 6.5625 C41.9640625 7.16191406 42.428125 7.76132813 42.90625 8.37890625 C46.10694922 13.12279974 45.47829326 18.46843445 45 24 C43.97881596 28.04571 42.54953794 30.91087805 39.09375 33.33984375 C33.45192463 36.29759175 28.63512282 37.12559264 22.265625 37.09765625 C20.51427246 37.09390991 20.51427246 37.09390991 18.72753906 37.09008789 C17.24995117 37.08098389 15.77236328 37.07187988 14.25 37.0625 C9.5475 37.041875 4.845 37.02125 0 37 C0 24.79 0 12.58 0 0 Z " fill="#FCFCFC" transform="translate(983,1814)"/>
<path d="M0 0 C4.764375 -0.0825 9.52875 -0.165 14.4375 -0.25 C16.66391235 -0.30462402 16.66391235 -0.30462402 18.93530273 -0.36035156 C26.99850265 -0.42772147 34.46322503 -0.28798631 40.60717773 5.51904297 C45.06876273 10.66335604 45.35290149 14.2555154 45.2734375 20.8828125 C44.88676046 25.29093071 43.82689122 28.56970802 41 32 C35.30143732 36.63177014 29.25469616 37.12887531 22.16796875 37.09765625 C21.00289795 37.09515869 19.83782715 37.09266113 18.63745117 37.09008789 C16.43472534 37.07643188 16.43472534 37.07643188 14.1875 37.0625 C9.505625 37.041875 4.82375 37.02125 0 37 C0 24.79 0 12.58 0 0 Z " fill="#FCFCFC" transform="translate(130,1814)"/>
<path d="M0 0 C1.21945312 0.02449219 2.43890625 0.04898437 3.6953125 0.07421875 C6.875 0.3125 6.875 0.3125 9.875 1.3125 C9.875 4.2825 9.875 7.2525 9.875 10.3125 C8.71871094 10.38597656 8.71871094 10.38597656 7.5390625 10.4609375 C6.53617187 10.53570313 5.53328125 10.61046875 4.5 10.6875 C3.50226563 10.75710938 2.50453125 10.82671875 1.4765625 10.8984375 C-1.28008879 11.07613964 -1.28008879 11.07613964 -3.125 13.3125 C-4.47644831 17.07149529 -4.45925768 21.10857509 -4.6875 25.0625 C-4.831875 27.455 -4.97625 29.8475 -5.125 32.3125 C-0.175 32.3125 4.775 32.3125 9.875 32.3125 C9.875 35.6125 9.875 38.9125 9.875 42.3125 C4.925 42.3125 -0.025 42.3125 -5.125 42.3125 C-5.125 61.7825 -5.125 81.2525 -5.125 101.3125 C-8.755 101.3125 -12.385 101.3125 -16.125 101.3125 C-16.125 81.8425 -16.125 62.3725 -16.125 42.3125 C-20.415 42.3125 -24.705 42.3125 -29.125 42.3125 C-29.125 39.0125 -29.125 35.7125 -29.125 32.3125 C-24.835 32.3125 -20.545 32.3125 -16.125 32.3125 C-16.17140625 30.79398438 -16.2178125 29.27546875 -16.265625 27.7109375 C-16.30315384 25.70314472 -16.3395528 23.69533061 -16.375 21.6875 C-16.40851563 20.68847656 -16.44203125 19.68945312 -16.4765625 18.66015625 C-16.55582245 12.67603013 -16.31804137 8.94766477 -12.125 4.3125 C-8.19047243 0.29127945 -5.55876849 -0.17112982 0 0 Z " fill="#020202" transform="translate(498.125,1800.6875)"/>
<path d="M0 0 C0 9.57 0 19.14 0 29 C4.62 29 9.24 29 14 29 C14 32.3 14 35.6 14 39 C9.71 39 5.42 39 1 39 C1.09335266 45.7995652 1.19940524 52.59876661 1.31738281 59.39794922 C1.35573401 61.71234669 1.3905759 64.02680502 1.421875 66.34130859 C1.4673924 69.66265664 1.52540843 72.98358341 1.5859375 76.3046875 C1.59748871 77.34430634 1.60903992 78.38392517 1.62094116 79.45504761 C1.64081085 80.41589264 1.66068054 81.37673767 1.68115234 82.36669922 C1.69447601 83.21497284 1.70779968 84.06324646 1.7215271 84.93722534 C1.81776158 87.22186119 1.81776158 87.22186119 4 89 C6.66949409 89.24315656 6.66949409 89.24315656 9.625 89.125 C11.12933594 89.09792969 11.12933594 89.09792969 12.6640625 89.0703125 C13.43492188 89.04710937 14.20578125 89.02390625 15 89 C15 92.3 15 95.6 15 99 C11.40998391 100.19667203 8.4095161 100.20538881 4.625 100.25 C2.66433594 100.28867188 2.66433594 100.28867188 0.6640625 100.328125 C-3.27931572 99.97498665 -5.02598936 99.58518239 -8 97 C-11.49335496 90.78883067 -11.39356233 85.17288662 -11.29296875 78.16015625 C-11.28872391 77.03806259 -11.28447906 75.91596893 -11.28010559 74.75987244 C-11.26338097 71.19383233 -11.22573922 67.62836785 -11.1875 64.0625 C-11.17244517 61.63737798 -11.15875817 59.21224706 -11.14648438 56.78710938 C-11.11349764 50.85785284 -11.06175737 44.92902385 -11 39 C-14.96 39 -18.92 39 -23 39 C-23 35.7 -23 32.4 -23 29 C-19.04 29 -15.08 29 -11 29 C-11 21.08 -11 13.16 -11 5 C-2 0 -2 0 0 0 Z " fill="#060606" transform="translate(1425,1804)"/>
<path d="M0 0 C0 9.57 0 19.14 0 29 C4.62 29 9.24 29 14 29 C14 32.3 14 35.6 14 39 C9.38 39 4.76 39 0 39 C0.11825867 45.47798931 0.24250816 51.95582552 0.37231445 58.43359375 C0.4156301 60.637338 0.45730759 62.84111508 0.49731445 65.04492188 C0.55509844 68.21234024 0.61876976 71.37959386 0.68359375 74.546875 C0.70030624 75.53242371 0.71701874 76.51797241 0.73423767 77.53338623 C0.75418289 78.4540387 0.77412811 79.37469116 0.79467773 80.32324219 C0.81799416 81.53569611 0.81799416 81.53569611 0.84178162 82.77264404 C0.95842848 85.32440751 0.95842848 85.32440751 2 89 C6.29 89 10.58 89 15 89 C15 92.3 15 95.6 15 99 C8.72395682 100.56901079 1.04797377 101.40010562 -5.1796875 99.24609375 C-8.16170483 97.35451559 -9.71743977 95.21802764 -11 92 C-11.24050903 89.50689697 -11.24050903 89.50689697 -11.22705078 86.68066406 C-11.22689972 85.61986633 -11.22674866 84.5590686 -11.22659302 83.46612549 C-11.21627045 82.32746033 -11.20594788 81.18879517 -11.1953125 80.015625 C-11.1924826 78.84489441 -11.18965271 77.67416382 -11.18673706 76.46795654 C-11.17554156 72.72853375 -11.15043776 68.98935041 -11.125 65.25 C-11.1149694 62.71484721 -11.10584369 60.17969066 -11.09765625 57.64453125 C-11.07560422 51.42959523 -11.04107835 45.21483822 -11 39 C-14.96 39 -18.92 39 -23 39 C-23 35.7 -23 32.4 -23 29 C-19.04 29 -15.08 29 -11 29 C-11 21.08 -11 13.16 -11 5 C-2 0 -2 0 0 0 Z " fill="#020202" transform="translate(336,1804)"/>
<path d="M0 0 C3.96 0 7.92 0 12 0 C12 32.67 12 65.34 12 99 C8.04 99 4.08 99 0 99 C0 66.33 0 33.66 0 0 Z " fill="#000000" transform="translate(1794,1803)"/>
<path d="M0 0 C0 3.96 0 7.92 0 12 C-2.289375 12.12375 -2.289375 12.12375 -4.625 12.25 C-9.4183838 12.74423308 -12.3062392 13.74597263 -16 17 C-21.3626638 23.85229263 -22.30183659 30.14244062 -22.4140625 38.5546875 C-22.43342865 39.45623566 -22.4527948 40.35778381 -22.4727478 41.28665161 C-22.53224296 44.14933996 -22.57880817 47.01206918 -22.625 49.875 C-22.66320747 51.82293363 -22.7022608 53.77085086 -22.7421875 55.71875 C-22.83791965 60.47903258 -22.92206116 65.2393942 -23 70 C-27.29 70 -31.58 70 -36 70 C-36 47.23 -36 24.46 -36 1 C-32.04 1 -28.08 1 -24 1 C-23.67 5.95 -23.34 10.9 -23 16 C-22.319375 14.47375 -21.63875 12.9475 -20.9375 11.375 C-15.78646484 1.27380571 -11.2638854 -0.83436188 0 0 Z " fill="#101010" transform="translate(1091,1832)"/>
<path d="M0 0 C0.70487549 0.00612305 1.40975098 0.01224609 2.13598633 0.01855469 C7.9462699 0.19237516 12.31510727 1.32699929 17.1875 4.4375 C18.074375 4.97375 18.96125 5.51 19.875 6.0625 C26.71630519 13.08870533 29.56208701 20.58175551 29.46875 30.23046875 C28.79976738 37.85872894 25.54591514 44.07908486 20.1875 49.4375 C11.84953123 55.82402927 3.42443998 56.45588988 -6.8125 55.4375 C-13.85896953 53.37422003 -18.74810033 49.47059325 -22.8125 43.4375 C-23.225 42.87675781 -23.6375 42.31601563 -24.0625 41.73828125 C-28.09383985 35.28533795 -27.6875556 27.76318669 -26.8125 20.4375 C-24.32325308 11.78822728 -18.59066928 6.31250016 -11.046875 1.7734375 C-7.28844611 0.22104296 -4.00336487 -0.05906213 0 0 Z M-14.52734375 13.37890625 C-19.42287024 19.63366127 -20.48474623 24.55061124 -19.8125 32.4375 C-18.21686545 38.55018824 -14.74981865 42.94415021 -9.8125 46.75 C-4.21600704 49.69868984 2.54878838 49.4641148 8.52734375 47.77734375 C13.53588952 45.55666415 17.42112041 42.17469904 20.1875 37.4375 C22.56061322 31.09519742 22.94725695 24.70045863 20.1875 18.4375 C16.87441163 13.46351956 13.01685133 9.16471521 7.1875 7.4375 C-1.55344322 6.54418239 -8.42315927 6.46824637 -14.52734375 13.37890625 Z " fill="#192028" transform="translate(1854.8125,1682.5625)"/>
<path d="M0 0 C0 3.96 0 7.92 0 12 C-2.289375 12.12375 -2.289375 12.12375 -4.625 12.25 C-9.42429265 12.75162098 -12.33690746 13.68577341 -16 17 C-21.03847673 23.87368348 -22.29987929 30.99319676 -22.4140625 39.3359375 C-22.43342865 40.21528961 -22.4527948 41.09464172 -22.4727478 42.00064087 C-22.53222815 44.79199718 -22.5788021 47.58339543 -22.625 50.375 C-22.66320885 52.27475694 -22.70226226 54.1744971 -22.7421875 56.07421875 C-22.83790357 60.7160085 -22.9220504 65.35787929 -23 70 C-26.96 70 -30.92 70 -35 70 C-35 47.23 -35 24.46 -35 1 C-31.37 1 -27.74 1 -24 1 C-23.67 6.61 -23.34 12.22 -23 18 C-22.443125 16.47375 -21.88625 14.9475 -21.3125 13.375 C-16.87196509 2.25791614 -11.67383854 -0.27467855 0 0 Z " fill="#050505" transform="translate(309,1832)"/>
<path d="M0 0 C3.96 0 7.92 0 12 0 C12 22.77 12 45.54 12 69 C8.04 69 4.08 69 0 69 C0 46.23 0 23.46 0 0 Z " fill="#060606" transform="translate(1756,1833)"/>
<path d="M0 0 C0.13615919 3.00155373 0.2346398 5.996821 0.3125 9 C0.35439453 9.83917969 0.39628906 10.67835937 0.43945312 11.54296875 C0.56379589 17.95905567 -0.93243874 22.02505969 -5 27 C-10.79262815 32.36877731 -15.27750014 33.49924908 -23.07421875 33.39453125 C-27.47825929 32.80066196 -29.0996301 31.29231178 -32 28 C-34.10751876 23.78496247 -33.50875718 18.57881466 -33 14 C-31.64960425 10.59436779 -29.53106761 8.74403934 -26.19140625 7.12109375 C-23.81787592 6.26411021 -21.44597845 5.62421641 -19 5 C-17.03684861 4.47383557 -15.07370836 3.94762885 -13.11083984 3.42041016 C-11.7596947 3.06064159 -10.4071644 2.70603012 -9.05322266 2.35693359 C-6.04291952 1.57815257 -3.04760178 0 0 0 Z " fill="#F9F9F9" transform="translate(238,1862)"/>
<path d="M0 0 C0.10890711 3.00099588 0.18773555 5.99796378 0.25 9 C0.30027344 10.25876953 0.30027344 10.25876953 0.3515625 11.54296875 C0.44480097 17.55685021 -0.50015609 22.03001604 -4 27 C-8.49189761 31.29172392 -13.56364582 33.37180679 -19.75 33.625 C-24.48256762 33.3371635 -27.48088905 32.33864372 -31 29 C-33.63715735 24.80452239 -33.68742642 19.81198492 -33 15 C-30.71786133 10.43572265 -28.49157457 8.27842092 -24 6 C-20.82745062 4.97547428 -17.61180042 4.16948738 -14.375 3.375 C-12.67430654 2.94599625 -10.97377844 2.5163363 -9.2734375 2.0859375 C-8.52497559 1.9007959 -7.77651367 1.7156543 -7.00537109 1.52490234 C-1.17953488 0 -1.17953488 0 0 0 Z " fill="#FAFAFA" transform="translate(1598,1862)"/>
<path d="M0 0 C6.09966929 6.09966929 7 10.43909149 7 19 C-4.88 19 -16.76 19 -29 19 C-26.58157227 4.48943364 -26.58157227 4.48943364 -20 -1 C-13.61480814 -4.92934883 -6.20216989 -3.5106622 0 0 Z " fill="#FCFCFC" transform="translate(718,1843)"/>
<path d="M0 0 C14 0 14 0 20 3 C22.35620437 6.53430656 22.48991613 7.83571287 22 12 C21.29875 12.99 20.5975 13.98 19.875 15 C17.59067 17.87637496 17.59067 17.87637496 18.6875 21.125 C19.120625 22.07375 19.55375 23.0225 20 24 C20.34976758 25.32911682 20.69096017 26.66082739 21 28 C18.69 28 16.38 28 14 28 C13.4225 26.865625 12.845 25.73125 12.25 24.5625 C10.64507365 21.62689703 10.64507365 21.62689703 7.75 20.0625 C7.1725 20.041875 6.595 20.02125 6 20 C6 22.64 6 25.28 6 28 C4.02 28 2.04 28 0 28 C0 18.76 0 9.52 0 0 Z " fill="#161E26" transform="translate(1846,1696)"/>
<path d="M0 0 C3.96 0 7.92 0 12 0 C12 4.95 12 9.9 12 15 C8.04 15 4.08 15 0 15 C0 10.05 0 5.1 0 0 Z " fill="#0D0D0D" transform="translate(1756,1804)"/>
<path d="M0 0 C3.375 -0.125 3.375 -0.125 7 0 C7.66 0.66 8.32 1.32 9 2 C8.625 4.625 8.625 4.625 8 7 C5.36 7 2.72 7 0 7 C0 4.69 0 2.38 0 0 Z " fill="#E5E6E7" transform="translate(1852,1702)"/>
</svg>
