<svg version="1.1" xmlns="http://www.w3.org/2000/svg" width="100" height="100" viewBox="0 0 100 100"><path d="M23.438 0c1.325 0.262 2.348 0.771 3.522 1.433l1.173 0.658c0.416 0.237 0.833 0.473 1.262 0.717l1.318 0.743c3.693 2.09 7.361 4.223 11.021 6.37 1.714 1.005 3.434 1.998 5.157 2.985l0.696 0.399q1.666 0.955 3.336 1.906l1.216 0.696 1.065 0.607L54.297 17.188l0.674 0.371c1.41 0.861 2.2 1.527 2.623 3.156 0.117 0.626 0.221 1.255 0.315 1.886l0.184 1.044c0.198 1.134 0.378 2.271 0.559 3.408q0.201 1.186 0.406 2.371c0.355 2.078 0.697 4.158 1.036 6.238 0.347 2.117 0.707 4.233 1.065 6.348 0.402 2.377 0.804 4.754 1.195 7.132l0.181 1.095q0.166 1.011 0.331 2.023c0.303 2.019 0.303 2.019 0.805 3.991 0.897 0.531 0.897 0.531 2.046 0.898l1.331 0.479 1.462 0.504q0.759 0.27 1.517 0.541c1.343 0.479 2.688 0.949 4.034 1.419 1.321 0.462 2.639 0.929 3.958 1.397q2.353 0.835 4.709 1.665c5.516 1.944 11.005 3.961 16.491 5.988v0.781l-0.791 0.44c-6.551 3.645 -6.551 3.645 -13.033 7.41 -2.995 1.777 -6.015 3.51 -9.037 5.239 -1.873 1.075 -3.738 2.152 -5.559 3.316l-0.805 0.51a163.672 163.672 0 0 0 -2.006 1.311c-2.897 1.276 -6.305 -0.645 -9.076 -1.66l-1.523 -0.551c-1.339 -0.484 -2.676 -0.972 -4.014 -1.46a1469.141 1469.141 0 0 0 -3.193 -1.159q-1.569 -0.568 -3.138 -1.138l-1.554 -0.564c-2.699 -0.979 -5.389 -1.973 -8.063 -3.021l-1.312 -0.51a195.313 195.313 0 0 1 -2.413 -0.961l-1.073 -0.418 -0.928 -0.372c-1.08 -0.209 -1.492 0.033 -2.405 0.618a53.516 53.516 0 0 0 -1.904 1.514l-1.145 0.949c-1.573 1.322 -3.131 2.663 -4.688 4.004 -1.715 1.475 -3.459 2.91 -5.215 4.336 -1.297 1.069 -2.572 2.162 -3.845 3.259a296.094 296.094 0 0 1 -7.031 5.859l-1.106 0.911 -1.066 0.871 -0.954 0.783C1.563 100 1.563 100 0.781 100a991.797 991.797 0 0 1 -0.304 -14.711c-0.03 -2.278 -0.072 -4.555 -0.139 -6.832a297.266 297.266 0 0 1 -0.114 -6.603 99.609 99.609 0 0 0 -0.064 -2.509c-0.251 -6.879 -0.251 -6.879 1.87 -9.226 1.199 -1.121 2.486 -2.064 3.855 -2.965 1.21 -0.827 2.291 -1.794 3.39 -2.76a280.078 280.078 0 0 1 4.566 -3.784c1.659 -1.35 3.287 -2.73 4.907 -4.126 3.577 -3.08 7.25 -6.037 10.938 -8.984q-0.46 -2.833 -0.928 -5.664l-0.149 -0.904a985.547 985.547 0 0 0 -2.292 -13.245l-0.268 -1.492q-0.668 -3.715 -1.343 -7.429l-0.498 -2.761 -0.237 -1.291 -0.214 -1.191 -0.189 -1.038C23.438 1.563 23.438 1.563 23.438 0m7.031 37.891v37.109c3.074 -1.537 6.04 -3.086 8.984 -4.834 3.324 -1.957 6.66 -3.891 10.013 -5.8 5 -2.848 5 -2.848 9.982 -5.724l0.823 -0.472c1.342 -0.729 1.342 -0.729 2.229 -1.921l-0.771 -0.445 -1.094 -0.631 -1.23 -0.71 -2.736 -1.578a10924.219 10924.219 0 0 0 -9.453 -5.45c-0.414 -0.238 -0.829 -0.477 -1.256 -0.723a1192.188 1192.188 0 0 1 -6.413 -3.724l-1.291 -0.755a1565.625 1565.625 0 0 1 -2.422 -1.421l-1.1 -0.645 -0.957 -0.563C32.695 38.996 31.58 38.446 30.469 37.891" fill="#E5E792"/><path d="M30.469 37.5q0.069 7.359 0.102 14.72c0.01 2.278 0.023 4.557 0.046 6.835 0.021 2.198 0.033 4.397 0.038 6.595q0.006 1.259 0.021 2.517c0.014 1.175 0.016 2.349 0.015 3.524l0.021 1.052c-0.014 1.723 -0.055 2.415 -1.172 3.798L28.516 77.344l-0.98 0.922a141.406 141.406 0 0 1 -6.491 5.586 229.688 229.688 0 0 0 -3.613 3.014l-0.642 0.545L14.844 89.063c-3.1 2.635 -6.215 5.249 -9.375 7.813l-1.108 0.912 -1.065 0.87 -0.954 0.783C1.563 100 1.563 100 0.781 100a991.797 991.797 0 0 1 -0.304 -14.711c-0.03 -2.278 -0.072 -4.555 -0.139 -6.832a297.266 297.266 0 0 1 -0.114 -6.603 99.609 99.609 0 0 0 -0.064 -2.509c-0.251 -6.879 -0.251 -6.879 1.87 -9.226 1.199 -1.121 2.486 -2.064 3.855 -2.965 1.21 -0.827 2.291 -1.794 3.39 -2.76a280.078 280.078 0 0 1 4.566 -3.784c1.659 -1.35 3.287 -2.73 4.907 -4.126a296.094 296.094 0 0 1 7.031 -5.859l1.106 -0.911 1.066 -0.871 0.954 -0.783C29.688 37.5 29.688 37.5 30.469 37.5" fill="#8B8D08"/><path d="M23.438 0c1.325 0.262 2.348 0.771 3.522 1.433l1.173 0.658 1.262 0.717 1.318 0.743c3.693 2.09 7.361 4.223 11.021 6.37 1.714 1.005 3.434 1.998 5.157 2.985l0.696 0.399q1.666 0.955 3.336 1.906l1.216 0.696 1.065 0.607L54.297 17.188l0.674 0.371c1.409 0.86 2.2 1.527 2.627 3.153q0.176 0.939 0.318 1.883l0.186 1.042c0.199 1.133 0.382 2.267 0.564 3.402q0.203 1.184 0.409 2.368c0.358 2.076 0.701 4.154 1.042 6.232 0.28 1.696 0.571 3.391 0.862 5.085 0.602 3.501 1.196 7.004 1.773 10.509l0.164 0.977c0.243 1.494 0.432 2.911 0.366 4.43 -1.42 -0.537 -2.723 -1.173 -4.047 -1.916l-1.212 -0.679 -1.284 -0.725 -1.334 -0.75c-2.648 -1.494 -5.284 -3.007 -7.898 -4.56a407.422 407.422 0 0 0 -5.098 -2.973l-0.675 -0.388q-1.658 -0.952 -3.318 -1.9C30.79 38.372 30.79 38.372 29.688 36.719c-0.252 -1.113 -0.469 -2.212 -0.662 -3.336l-0.185 -1.032c-0.201 -1.127 -0.398 -2.255 -0.596 -3.382l-0.417 -2.348q-0.437 -2.462 -0.869 -4.925 -0.555 -3.158 -1.116 -6.314 -0.431 -2.425 -0.859 -4.851 -0.205 -1.164 -0.412 -2.328 -0.288 -1.627 -0.572 -3.254l-0.173 -0.974C23.59 2.621 23.438 1.379 23.438 0" fill="#DADC55"/></svg>