<svg width="6532" height="4083" viewBox="0 0 6532 4083" fill="none" xmlns="http://www.w3.org/2000/svg">
<rect width="6532" height="4083" fill="black"/>
<rect x="221.621" y="653.28" width="6065.43" height="2753.11" fill="#F2EABB"/>
<path fill-rule="evenodd" clip-rule="evenodd" d="M753.314 3406.39L753.314 653.28H794.139L794.139 3406.39H753.314Z" fill="black"/>
<path fill-rule="evenodd" clip-rule="evenodd" d="M1258.76 3406.39L1258.76 653.28H1299.59L1299.59 3406.39H1258.76Z" fill="black"/>
<path fill-rule="evenodd" clip-rule="evenodd" d="M1764.21 3406.39L1764.21 653.28H1805.04L1805.04 3406.39H1764.21Z" fill="black"/>
<path fill-rule="evenodd" clip-rule="evenodd" d="M2269.66 3406.39V653.28H2310.48V3406.39H2269.66Z" fill="black"/>
<path fill-rule="evenodd" clip-rule="evenodd" d="M2775.11 3406.39V653.28H2815.93V3406.39H2775.11Z" fill="black"/>
<path fill-rule="evenodd" clip-rule="evenodd" d="M3292.22 3406.39V653.28H3333.05V3406.39H3292.22Z" fill="black"/>
<path fill-rule="evenodd" clip-rule="evenodd" d="M3809.34 3406.39V653.28H3850.16V3406.39H3809.34Z" fill="black"/>
<path fill-rule="evenodd" clip-rule="evenodd" d="M4268.13 3406.39V653.28H4308.95V3406.39H4268.13Z" fill="black"/>
<path fill-rule="evenodd" clip-rule="evenodd" d="M4738.58 3406.39V653.28H4779.41V3406.39H4738.58Z" fill="black"/>
<path fill-rule="evenodd" clip-rule="evenodd" d="M5244.03 3406.39V653.28H5284.86V3406.39H5244.03Z" fill="black"/>
<path fill-rule="evenodd" clip-rule="evenodd" d="M5737.81 3406.39V653.28H5778.64V3406.39H5737.81Z" fill="black"/>
<path d="M1130 2891.64V2798.55H1186.18V2808.55H1141.27V2840H1183.27V2850H1141.27V2881.64H1186.91V2891.64H1130Z" fill="#F2EABB"/>
<path d="M1257.41 2821.82C1256.86 2817.21 1254.65 2813.64 1250.77 2811.09C1246.89 2808.55 1242.14 2807.27 1236.5 2807.27C1232.38 2807.27 1228.77 2807.94 1225.68 2809.27C1222.62 2810.61 1220.23 2812.44 1218.5 2814.77C1216.8 2817.11 1215.95 2819.76 1215.95 2822.73C1215.95 2825.21 1216.55 2827.35 1217.73 2829.14C1218.94 2830.89 1220.48 2832.36 1222.36 2833.55C1224.24 2834.7 1226.21 2835.65 1228.27 2836.41C1230.33 2837.14 1232.23 2837.73 1233.95 2838.18L1243.41 2840.73C1245.83 2841.36 1248.53 2842.24 1251.5 2843.36C1254.5 2844.48 1257.36 2846.02 1260.09 2847.95C1262.85 2849.86 1265.12 2852.32 1266.91 2855.32C1268.7 2858.32 1269.59 2862 1269.59 2866.36C1269.59 2871.39 1268.27 2875.94 1265.64 2880C1263.03 2884.06 1259.21 2887.29 1254.18 2889.68C1249.18 2892.08 1243.11 2893.27 1235.95 2893.27C1229.29 2893.27 1223.52 2892.2 1218.64 2890.05C1213.79 2887.89 1209.97 2884.89 1207.18 2881.05C1204.42 2877.2 1202.86 2872.73 1202.5 2867.64H1214.14C1214.44 2871.15 1215.62 2874.06 1217.68 2876.36C1219.77 2878.64 1222.41 2880.33 1225.59 2881.45C1228.8 2882.55 1232.26 2883.09 1235.95 2883.09C1240.26 2883.09 1244.12 2882.39 1247.55 2881C1250.97 2879.58 1253.68 2877.61 1255.68 2875.09C1257.68 2872.55 1258.68 2869.58 1258.68 2866.18C1258.68 2863.09 1257.82 2860.58 1256.09 2858.64C1254.36 2856.7 1252.09 2855.12 1249.27 2853.91C1246.45 2852.7 1243.41 2851.64 1240.14 2850.73L1228.68 2847.45C1221.41 2845.36 1215.65 2842.38 1211.41 2838.5C1207.17 2834.62 1205.05 2829.55 1205.05 2823.27C1205.05 2818.06 1206.45 2813.52 1209.27 2809.64C1212.12 2805.73 1215.94 2802.7 1220.73 2800.55C1225.55 2798.36 1230.92 2797.27 1236.86 2797.27C1242.86 2797.27 1248.2 2798.35 1252.86 2800.5C1257.53 2802.62 1261.23 2805.53 1263.95 2809.23C1266.71 2812.92 1268.17 2817.12 1268.32 2821.82H1257.41Z" fill="#F2EABB"/>
<path d="M1288.12 2891.64V2798.55H1299.4V2844.73H1300.49L1342.31 2798.55H1357.03L1317.94 2840.55L1357.03 2891.64H1343.4L1311.03 2848.36L1299.4 2861.45V2891.64H1288.12Z" fill="#F2EABB"/>
<path d="M1371.62 2891.64V2798.55H1427.81V2808.55H1382.9V2840H1424.9V2850H1382.9V2881.64H1428.53V2891.64H1371.62ZM1395.08 2789.09L1380.9 2768H1393.44L1404.53 2789.09H1395.08Z" fill="#F2EABB"/>
<path d="M637.702 384.49H669.397C669.397 390.338 669.397 394.193 669.397 396.054C669.53 415.326 668.068 429.082 665.012 437.322C658.899 454.202 645.277 464.369 624.147 467.825C616.173 469.154 596.173 469.819 564.145 469.819C549.793 469.819 539.56 469.486 533.447 468.822C527.334 468.29 521.287 466.961 515.307 464.835C491.917 456.993 478.694 436.325 475.638 402.832C474.309 387.414 473.645 370.867 473.645 353.19C473.645 316.906 474.508 293.115 476.236 281.817C479.027 263.741 488.529 250.185 504.742 241.147C514.842 235.432 528.33 232.042 545.208 230.979C553.447 230.447 568.398 230.182 590.06 230.182C610.525 230.182 624.811 231.511 632.918 234.169C651.257 240.15 662.287 253.441 666.008 274.042C667.337 281.618 668.002 291.187 668.002 302.751C668.002 304.08 667.935 306.206 667.802 309.13H636.506C636.373 303.947 636.307 300.558 636.307 298.963C636.041 280.089 632.851 268.46 626.738 264.074C621.423 260.219 609.13 258.292 589.86 258.292C564.345 258.292 546.005 259.023 534.842 260.485C527.932 261.416 522.549 263.409 518.696 266.466C514.975 269.39 512.117 273.909 510.124 280.023C507.998 286.668 506.934 297.7 506.934 313.118C506.934 367.877 508.396 402.034 511.32 415.591C513.048 424.363 516.237 430.544 520.888 434.132C526.204 438.253 534.842 440.578 546.803 441.11C554.112 441.376 561.953 441.509 570.325 441.509C589.594 441.509 603.681 440.911 612.585 439.715C621.622 438.385 627.801 436.126 631.124 432.936C635.775 428.417 638.101 418.25 638.101 402.433C638.101 397.25 637.968 391.269 637.702 384.49Z" fill="white"/>
<path d="M793.672 257.204C809.091 257.204 820.803 257.734 828.807 258.793C836.811 259.735 843.815 261.501 849.818 264.091C867.238 271.625 877.596 288.459 880.892 314.593C881.834 321.656 882.304 334.488 882.304 353.087C882.304 384.872 881.775 404.884 880.715 413.125C878.95 426.545 875.889 436.963 871.534 444.38C867.179 451.796 860.705 457.564 852.113 461.685C843.403 465.923 832.103 468.336 818.213 468.924C811.033 469.278 801.97 469.454 791.023 469.454C772.544 469.454 759.36 468.924 751.474 467.865C743.706 466.923 736.525 464.863 729.934 461.685C717.575 455.563 709.277 445.204 705.039 430.606C702.096 420.482 700.507 408.534 700.272 394.76C700.037 385.814 699.919 372.276 699.919 354.147C699.919 335.076 700.39 321.833 701.331 314.416C704.627 288.518 714.985 271.743 732.406 264.091C740.174 260.677 750.356 258.617 762.951 257.91C771.072 257.44 781.313 257.204 793.672 257.204ZM788.198 282.985C774.662 282.985 765.01 283.279 759.243 283.868C753.475 284.339 748.649 285.398 744.765 287.046C737.703 289.989 732.935 296.523 730.464 306.647C728.816 313.71 727.992 321.95 727.992 331.368V363.329C727.992 388.286 728.227 403.119 728.698 407.827C729.64 417.363 731.288 424.544 733.642 429.37C736.114 434.197 739.88 437.67 744.941 439.789C749.414 441.672 755.947 442.79 764.54 443.144C771.366 443.497 780.253 443.673 791.2 443.673C805.795 443.673 816.212 443.438 822.451 442.967C828.689 442.378 833.692 441.319 837.458 439.789C844.521 436.846 849.288 430.253 851.76 420.012C853.408 412.831 854.232 404.59 854.232 395.29V363.329C854.232 338.372 853.996 323.54 853.525 318.831C852.584 309.178 850.877 301.997 848.405 297.288C846.051 292.461 842.343 288.989 837.282 286.87C832.691 284.986 825.982 283.868 817.154 283.515C809.974 283.162 800.322 282.985 788.198 282.985Z" fill="white"/>
<path d="M1154.53 260.029V466.629H1126.46V285.987L1052.13 466.629H1025.64L950.96 285.987V466.629H922.888V260.029H966.674L1038.53 436.434L1110.22 260.029H1154.53Z" fill="white"/>
<path d="M1203.94 466.629V260.029H1296.46C1309.64 260.029 1319 260.383 1324.53 261.089C1330.07 261.678 1335.19 263.031 1339.89 265.15C1357.08 272.92 1365.67 292.697 1365.67 324.481C1365.67 341.904 1363.32 355.089 1358.61 364.035C1352.49 375.454 1343.07 382.694 1330.36 385.755C1325.89 386.814 1313.41 387.462 1292.93 387.697H1232.02V466.629H1203.94ZM1232.02 362.623H1288.52C1305.82 362.623 1317.47 361.563 1323.47 359.444C1329.83 357.09 1334.01 352.146 1336.01 344.612C1337.07 340.845 1337.6 335.194 1337.6 327.66C1337.6 313.416 1336.72 303.468 1334.95 297.818C1332.95 291.696 1328.36 287.87 1321.18 286.34C1318.12 285.634 1309.64 285.222 1295.75 285.104H1232.02V362.623Z" fill="white"/>
<path d="M1543.27 260.029H1571.34V403.59C1571.34 421.248 1569.4 434.079 1565.51 442.084C1559.74 454.209 1549.39 462.273 1534.44 466.276C1526.32 468.395 1510.6 469.454 1487.3 469.454C1470.7 469.454 1458.75 469.101 1451.45 468.395C1444.27 467.688 1437.92 466.276 1432.39 464.157C1420.03 459.448 1411.49 452.09 1406.78 442.084C1402.9 433.726 1400.96 420.894 1400.96 403.59V260.029H1429.03V403.59C1429.03 418.187 1430.27 427.663 1432.74 432.019C1435.92 437.434 1442.1 441.025 1451.28 442.79C1456.81 443.85 1467.46 444.38 1483.23 444.38C1506.42 444.38 1521.61 443.202 1528.79 440.848C1535.38 438.729 1539.62 433.432 1541.5 424.956C1542.68 420.247 1543.27 413.125 1543.27 403.59V260.029Z" fill="white"/>
<path d="M1698.79 286.693V466.629H1670.72V286.693H1602.39V260.029H1766.59V286.693H1698.79Z" fill="white"/>
<path d="M1825.89 285.104V347.613H1933.59V372.158H1825.89V441.554H1938V466.629H1797.81V260.029H1938V285.104H1825.89Z" fill="white"/>
<path d="M1979.64 466.629V260.029H2083.81C2102.17 260.029 2116.12 263.149 2125.66 269.388C2134.01 274.803 2139.72 283.044 2142.78 294.11C2144.55 300.702 2145.43 309.354 2145.43 320.067C2145.43 337.725 2143.14 350.556 2138.55 358.561C2133.72 367.273 2124.89 372.217 2112.06 373.394C2132.31 374.689 2142.49 387.756 2142.61 412.595V466.629H2114.53V417.893C2114.53 405.179 2111.65 396.467 2105.88 391.759C2099.88 387.403 2090.93 385.343 2079.05 385.578H2007.72V466.629H1979.64ZM2007.72 360.504H2076.22C2090.23 360.504 2100.35 358.62 2106.59 354.853C2113.77 350.498 2117.36 341.61 2117.36 328.19C2117.36 309.943 2115.71 298.465 2112.42 293.756C2108.3 287.988 2098.82 285.104 2083.99 285.104H2007.72V360.504Z" fill="white"/>
<path d="M2468.75 301.156H2437.05C2437.05 290.124 2436.59 282.349 2435.66 277.83C2433.93 269.058 2428.48 263.409 2419.31 260.884C2413.46 259.289 2403.03 258.492 2388.01 258.492C2366.88 258.492 2353.26 259.023 2347.15 260.086C2335.72 261.947 2328.41 267.064 2325.22 275.438C2323.36 280.488 2322.43 287.134 2322.43 295.374C2322.43 305.874 2323.69 313.915 2326.22 319.497C2329.14 325.744 2336.38 329.598 2347.95 331.06C2352.2 331.592 2364.76 332.257 2385.62 333.054C2408.74 333.984 2424.49 335.247 2432.86 336.842C2449.61 340.298 2461.04 348.472 2467.15 361.364C2471 369.604 2472.93 382.364 2472.93 399.642C2472.93 424.762 2468.81 441.974 2460.57 451.278C2452.07 460.847 2439.91 466.429 2424.09 468.024C2412 469.221 2395.65 469.819 2375.06 469.819C2350.07 469.819 2333.33 468.49 2324.82 465.831C2304.89 459.452 2293.46 444.101 2290.54 419.778C2289.87 414.594 2289.41 404.759 2289.14 390.272H2320.83C2320.83 394.791 2320.83 397.715 2320.83 399.044C2320.97 410.474 2321.83 418.914 2323.43 424.363C2325.02 429.68 2327.88 433.734 2332 436.525C2335.85 439.183 2341.96 440.645 2350.34 440.911C2359.51 441.309 2370.4 441.509 2383.03 441.509C2400.31 441.509 2412.53 440.844 2419.71 439.515C2426.88 438.186 2432.07 435.594 2435.26 431.74C2439.24 427.088 2441.24 415.392 2441.24 396.652C2441.24 387.614 2440.24 380.902 2438.25 376.516C2435.59 370.269 2429.01 366.481 2418.51 365.152C2413.33 364.487 2400.24 363.756 2379.24 362.959C2358.38 362.029 2345.22 361.231 2339.77 360.567C2322.36 358.041 2309.54 351.396 2301.3 340.63C2294.26 331.592 2290.73 317.637 2290.73 298.763C2290.73 271.65 2296.78 253.441 2308.87 244.137C2318.18 236.96 2330.2 232.707 2344.96 231.378C2355.45 230.58 2367.61 230.182 2381.43 230.182C2407.88 230.182 2426.02 231.843 2435.85 235.166C2455.92 241.811 2466.82 257.76 2468.55 283.013C2468.68 285.805 2468.75 291.852 2468.75 301.156Z" fill="white"/>
<path d="M2651.35 393.878H2679.43C2679.43 399.057 2679.43 402.471 2679.43 404.119C2679.54 421.189 2678.25 433.373 2675.54 440.671C2670.13 455.622 2658.06 464.628 2639.35 467.688C2632.28 468.866 2614.57 469.454 2586.2 469.454C2573.49 469.454 2564.43 469.16 2559.01 468.571C2553.6 468.1 2548.24 466.923 2542.95 465.04C2522.23 458.094 2510.52 439.789 2507.81 410.123C2506.63 396.467 2506.05 381.811 2506.05 366.154C2506.05 334.017 2506.81 312.945 2508.34 302.939C2510.81 286.929 2519.23 274.921 2533.59 266.916C2542.53 261.854 2554.48 258.852 2569.43 257.91C2576.73 257.44 2589.97 257.204 2609.16 257.204C2627.28 257.204 2639.94 258.381 2647.12 260.736C2663.36 266.033 2673.13 277.805 2676.42 296.052C2677.6 302.762 2678.19 311.238 2678.19 321.48C2678.19 322.657 2678.13 324.54 2678.01 327.13H2650.29C2650.18 322.539 2650.12 319.537 2650.12 318.125C2649.88 301.408 2647.06 291.108 2641.64 287.223C2636.93 283.809 2626.05 282.102 2608.98 282.102C2586.38 282.102 2570.14 282.75 2560.25 284.044C2554.13 284.868 2549.36 286.634 2545.95 289.342C2542.65 291.932 2540.12 295.934 2538.36 301.349C2536.47 307.235 2535.53 317.006 2535.53 330.662C2535.53 379.163 2536.83 409.417 2539.41 421.424C2540.94 429.194 2543.77 434.668 2547.89 437.846C2552.6 441.496 2560.25 443.556 2570.84 444.027C2577.32 444.262 2584.26 444.38 2591.68 444.38C2608.74 444.38 2621.22 443.85 2629.11 442.79C2637.11 441.613 2642.58 439.612 2645.53 436.787C2649.65 432.784 2651.71 423.779 2651.71 409.77C2651.71 405.179 2651.59 399.881 2651.35 393.878Z" fill="white"/>
<path d="M2745.08 260.029V466.629H2717.01V260.029H2745.08Z" fill="white"/>
<path d="M2822.74 285.104V347.613H2930.44V372.158H2822.74V441.554H2934.86V466.629H2794.67V260.029H2934.86V285.104H2822.74Z" fill="white"/>
<path d="M3159.41 260.029V466.629H3117.92L3004.57 285.987V466.629H2976.5V260.029H3017.81L3131.34 440.671V260.029H3159.41Z" fill="white"/>
<path d="M3341.95 393.878H3370.02C3370.02 399.057 3370.02 402.471 3370.02 404.119C3370.14 421.189 3368.85 433.373 3366.14 440.671C3360.72 455.622 3348.66 464.628 3329.94 467.688C3322.88 468.866 3305.17 469.454 3276.8 469.454C3264.09 469.454 3255.02 469.16 3249.61 468.571C3244.2 468.1 3238.84 466.923 3233.54 465.04C3212.83 458.094 3201.11 439.789 3198.41 410.123C3197.23 396.467 3196.64 381.811 3196.64 366.154C3196.64 334.017 3197.41 312.945 3198.94 302.939C3201.41 286.929 3209.83 274.921 3224.19 266.916C3233.13 261.854 3245.08 258.852 3260.03 257.91C3267.32 257.44 3280.57 257.204 3299.75 257.204C3317.88 257.204 3330.53 258.381 3337.71 260.736C3353.96 266.033 3363.73 277.805 3367.02 296.052C3368.2 302.762 3368.79 311.238 3368.79 321.48C3368.79 322.657 3368.73 324.54 3368.61 327.13H3340.89C3340.77 322.539 3340.71 319.537 3340.71 318.125C3340.48 301.408 3337.65 291.108 3332.24 287.223C3327.53 283.809 3316.64 282.102 3299.58 282.102C3276.98 282.102 3260.73 282.75 3250.85 284.044C3244.73 284.868 3239.96 286.634 3236.54 289.342C3233.25 291.932 3230.72 295.934 3228.95 301.349C3227.07 307.235 3226.13 317.006 3226.13 330.662C3226.13 379.163 3227.42 409.417 3230.01 421.424C3231.54 429.194 3234.37 434.668 3238.49 437.846C3243.19 441.496 3250.85 443.556 3261.44 444.027C3267.91 444.262 3274.86 444.38 3282.27 444.38C3299.34 444.38 3311.82 443.85 3319.7 442.79C3327.71 441.613 3333.18 439.612 3336.12 436.787C3340.24 432.784 3342.3 423.779 3342.3 409.77C3342.3 405.179 3342.19 399.881 3341.95 393.878Z" fill="white"/>
<path d="M3435.68 285.104V347.613H3543.38V372.158H3435.68V441.554H3547.79V466.629H3407.6V260.029H3547.79V285.104H3435.68Z" fill="white"/>
<path d="M3833.76 372.031H3861.74C3862.1 381.242 3862.28 387.325 3862.28 390.277C3862.28 400.552 3861.57 409.764 3860.15 417.913L3896.28 447.674L3880.34 467.869L3851.12 443.599C3847.34 451.04 3841.97 456.767 3835 460.783C3826.97 465.153 3818.53 467.692 3809.67 468.4C3801.52 469.109 3790.89 469.463 3777.79 469.463C3752.87 469.463 3736.04 468.4 3727.3 466.275C3709.83 462.141 3698.61 451.866 3693.65 435.45C3691.17 427.301 3689.93 415.787 3689.93 400.906C3689.93 377.758 3694.95 362.583 3704.99 355.378C3710.89 351.127 3720.34 348.115 3733.33 346.344C3728.96 342.446 3725.65 338.726 3723.41 335.183C3720.1 329.633 3718.45 322.074 3718.45 312.508C3718.45 292.195 3723.05 278.495 3732.26 271.409C3741.59 264.323 3758.48 260.78 3782.92 260.78C3795.2 260.78 3804.95 261.666 3812.15 263.437C3819.35 265.209 3825.31 268.221 3830.04 272.472C3838.42 280.031 3842.61 292.903 3842.61 311.091C3842.61 314.752 3842.5 319.948 3842.26 326.68H3814.63C3814.51 321.366 3814.45 317.941 3814.45 316.405C3814.33 302.824 3812.86 294.498 3810.02 291.427C3806.6 287.766 3797.45 285.936 3782.57 285.936C3765.92 285.936 3755.53 287.766 3751.39 291.427C3748.32 294.262 3746.79 299.753 3746.79 307.902C3746.79 315.697 3748.15 321.543 3750.86 325.44C3752.75 328.038 3756.65 331.758 3762.55 336.601L3834.29 396.477C3834.41 392.816 3834.47 390.1 3834.47 388.328C3834.47 385.258 3834.23 379.825 3833.76 372.031ZM3752.99 363.35C3740.35 365.122 3731.97 367.07 3727.84 369.196C3724.41 370.968 3721.93 374.393 3720.4 379.471C3718.98 384.549 3718.27 392.049 3718.27 401.969C3718.27 421.928 3721.34 434.269 3727.48 438.993C3731.5 442.064 3738.46 443.717 3748.38 443.954C3758.07 444.072 3767.98 444.131 3778.14 444.131C3794.91 444.131 3806.24 443.304 3812.15 441.651C3821.12 439.171 3826.85 434.033 3829.33 426.239L3752.99 363.35Z" fill="white"/>
<path d="M4070.33 261.681V332.257H4191.93V359.968H4070.33V438.319H4196.92V466.629H4038.64V233.371H4196.92V261.681H4070.33Z" fill="white"/>
<path d="M4423.59 260.029V466.629H4382.1L4268.75 285.987V466.629H4240.67V260.029H4281.99L4395.52 440.671V260.029H4423.59Z" fill="white"/>
<path d="M4546.1 361.21H4637.55C4638.14 368.038 4638.44 375.572 4638.44 383.812C4638.44 398.881 4638.26 409.77 4637.91 416.48C4636.49 440.966 4627.14 456.799 4609.83 463.98C4600.89 467.629 4580.7 469.454 4549.27 469.454C4528.32 469.454 4513.02 468.395 4503.37 466.276C4493.72 464.039 4485.54 459.86 4478.83 453.738C4468.47 444.203 4462.7 430.018 4461.52 411.183C4461.05 403.648 4460.88 394.113 4460.99 382.576C4460.99 380.222 4460.94 372.923 4460.82 360.68C4460.82 357.737 4460.82 354.912 4460.82 352.205C4460.82 333.722 4461.52 319.655 4462.94 310.002C4464.47 300.231 4467.17 291.579 4471.06 284.044C4478 270.507 4490.24 262.148 4507.78 258.97C4514.73 257.793 4527.62 257.204 4546.45 257.204C4567.64 257.204 4581.88 257.498 4589.18 258.087C4596.47 258.558 4602.83 259.676 4608.24 261.442C4626.14 267.681 4635.85 281.16 4637.38 301.879C4637.73 305.528 4637.91 312.827 4637.91 323.775H4610.01C4609.89 308.354 4608.66 298.112 4606.3 293.05C4603.83 287.753 4597.24 284.515 4586.53 283.338C4578.88 282.514 4564.69 282.102 4543.98 282.102C4527.03 282.102 4514.84 283.162 4507.43 285.28C4499.07 287.635 4493.72 294.58 4491.36 306.117C4490.07 312.121 4489.24 331.015 4488.89 362.799C4489.01 387.756 4489.19 402.412 4489.42 406.768C4489.89 417.363 4491.54 425.368 4494.36 430.783C4497.31 436.08 4501.9 439.553 4508.14 441.201C4516.02 443.438 4533.21 444.556 4559.69 444.556C4573.46 444.556 4583.7 443.909 4590.41 442.614C4597.24 441.201 4601.95 438.847 4604.54 435.551C4608.42 430.606 4610.36 417.657 4610.36 396.703C4610.36 394.348 4610.3 390.876 4610.19 386.285H4546.1V361.21Z" fill="white"/>
<path d="M4706.92 260.029V466.629H4678.84V260.029H4706.92Z" fill="white"/>
<path d="M4939.42 260.029V466.629H4897.93L4784.58 285.987V466.629H4756.5V260.029H4797.82L4911.35 440.671V260.029H4939.42Z" fill="white"/>
<path d="M5016.9 285.104V347.613H5124.6V372.158H5016.9V441.554H5129.02V466.629H4988.83V260.029H5129.02V285.104H5016.9Z" fill="white"/>
<path d="M5198.73 285.104V347.613H5306.43V372.158H5198.73V441.554H5310.85V466.629H5170.66V260.029H5310.85V285.104H5198.73Z" fill="white"/>
<path d="M5352.49 466.629V260.029H5456.66C5475.02 260.029 5488.97 263.149 5498.5 269.388C5506.86 274.803 5512.57 283.044 5515.63 294.11C5517.4 300.702 5518.28 309.354 5518.28 320.067C5518.28 337.725 5515.98 350.556 5511.39 358.561C5506.57 367.273 5497.74 372.217 5484.91 373.394C5505.16 374.689 5515.34 387.756 5515.45 412.595V466.629H5487.38V417.893C5487.38 405.179 5484.5 396.467 5478.73 391.759C5472.73 387.403 5463.78 385.343 5451.89 385.578H5380.56V466.629H5352.49ZM5380.56 360.504H5449.07C5463.08 360.504 5473.2 358.62 5479.44 354.853C5486.62 350.498 5490.21 341.61 5490.21 328.19C5490.21 309.943 5488.56 298.465 5485.26 293.756C5481.14 287.988 5471.67 285.104 5456.84 285.104H5380.56V360.504Z" fill="white"/>
<path d="M5590.29 260.029V466.629H5562.22V260.029H5590.29Z" fill="white"/>
<path d="M5822.79 260.029V466.629H5781.3L5667.95 285.987V466.629H5639.88V260.029H5681.19L5794.72 440.671V260.029H5822.79Z" fill="white"/>
<path d="M5945.3 361.21H6036.76C6037.35 368.038 6037.64 375.572 6037.64 383.812C6037.64 398.881 6037.46 409.77 6037.11 416.48C6035.7 440.966 6026.34 456.799 6009.04 463.98C6000.09 467.629 5979.9 469.454 5948.48 469.454C5927.53 469.454 5912.22 468.395 5902.57 466.276C5892.92 464.039 5884.74 459.86 5878.03 453.738C5867.67 444.203 5861.9 430.018 5860.73 411.183C5860.26 403.648 5860.08 394.113 5860.2 382.576C5860.2 380.222 5860.14 372.923 5860.02 360.68C5860.02 357.737 5860.02 354.912 5860.02 352.205C5860.02 333.722 5860.73 319.655 5862.14 310.002C5863.67 300.231 5866.38 291.579 5870.26 284.044C5877.21 270.507 5889.45 262.148 5906.99 258.97C5913.93 257.793 5926.82 257.204 5945.65 257.204C5966.84 257.204 5981.08 257.498 5988.38 258.087C5995.68 258.558 6002.03 259.676 6007.45 261.442C6025.34 267.681 6035.05 281.16 6036.58 301.879C6036.93 305.528 6037.11 312.827 6037.11 323.775H6009.21C6009.1 308.354 6007.86 298.112 6005.51 293.05C6003.03 287.753 5996.44 284.515 5985.73 283.338C5978.08 282.514 5963.9 282.102 5943.18 282.102C5926.23 282.102 5914.05 283.162 5906.63 285.28C5898.28 287.635 5892.92 294.58 5890.57 306.117C5889.27 312.121 5888.45 331.015 5888.09 362.799C5888.21 387.756 5888.39 402.412 5888.62 406.768C5889.09 417.363 5890.74 425.368 5893.57 430.783C5896.51 436.08 5901.1 439.553 5907.34 441.201C5915.23 443.438 5932.41 444.556 5958.89 444.556C5972.67 444.556 5982.91 443.909 5989.62 442.614C5996.44 441.201 6001.15 438.847 6003.74 435.551C6007.62 430.606 6009.57 417.657 6009.57 396.703C6009.57 394.348 6009.51 390.876 6009.39 386.285H5945.3V361.21Z" fill="white"/>
<path d="M1448.92 3616.43H1480.61V3778.51C1480.61 3798.45 1478.42 3812.94 1474.03 3821.97C1467.52 3835.66 1455.83 3844.77 1438.95 3849.29C1429.78 3851.68 1412.04 3852.88 1385.73 3852.88C1366.99 3852.88 1353.5 3852.48 1345.26 3851.68C1337.15 3850.88 1329.98 3849.29 1323.73 3846.89C1309.78 3841.58 1300.14 3833.27 1294.83 3821.97C1290.44 3812.54 1288.25 3798.05 1288.25 3778.51V3616.43H1319.94V3778.51C1319.94 3794.99 1321.34 3805.69 1324.13 3810.61C1327.72 3816.72 1334.69 3820.78 1345.06 3822.77C1351.31 3823.97 1363.33 3824.57 1381.14 3824.57C1407.32 3824.57 1424.46 3823.24 1432.57 3820.58C1440.01 3818.19 1444.8 3812.21 1446.92 3802.64C1448.25 3797.32 1448.92 3789.28 1448.92 3778.51V3616.43Z" fill="white"/>
<path d="M1709.32 3643.09V3849.69H1667.82L1554.47 3669.04V3849.69H1526.4V3643.09H1567.71L1681.24 3823.73V3643.09H1709.32Z" fill="white"/>
<path d="M1780.65 3643.09V3849.69H1752.58V3643.09H1780.65Z" fill="white"/>
<path d="M1959.87 3643.09H1990.06L1914.31 3849.69H1877.77L1801.32 3643.09H1831.33L1896.13 3819.67L1959.87 3643.09Z" fill="white"/>
<path d="M2040.91 3668.16V3730.67H2148.62V3755.22H2040.91V3824.61H2153.03V3849.69H2012.84V3643.09H2153.03V3668.16H2040.91Z" fill="white"/>
<path d="M2188.52 3849.69V3643.09H2292.69C2311.06 3643.09 2325 3646.21 2334.54 3652.45C2342.9 3657.86 2348.6 3666.1 2351.67 3677.17C2353.43 3683.76 2354.31 3692.41 2354.31 3703.12C2354.31 3720.78 2352.02 3733.61 2347.43 3741.62C2342.6 3750.33 2333.77 3755.27 2320.94 3756.45C2341.19 3757.75 2351.37 3770.81 2351.49 3795.65V3849.69H2323.42V3800.95C2323.42 3788.24 2320.53 3779.52 2314.76 3774.82C2308.76 3770.46 2299.82 3768.4 2287.93 3768.64H2216.6V3849.69H2188.52ZM2216.6 3743.56H2285.1C2299.11 3743.56 2309.23 3741.68 2315.47 3737.91C2322.65 3733.55 2326.24 3724.67 2326.24 3711.25C2326.24 3693 2324.59 3681.52 2321.3 3676.81C2317.18 3671.05 2307.7 3668.16 2292.87 3668.16H2216.6V3743.56Z" fill="white"/>
<path d="M2539.18 3703.12H2511.1C2511.1 3693.35 2510.69 3686.47 2509.87 3682.46C2508.34 3674.69 2503.51 3669.69 2495.39 3667.45C2490.21 3666.04 2480.97 3665.34 2467.67 3665.34C2448.96 3665.34 2436.89 3665.81 2431.48 3666.75C2421.35 3668.4 2414.88 3672.93 2412.06 3680.35C2410.41 3684.82 2409.58 3690.7 2409.58 3698C2409.58 3707.3 2410.7 3714.43 2412.94 3719.37C2415.53 3724.9 2421.94 3728.32 2432.18 3729.61C2435.95 3730.08 2447.07 3730.67 2465.55 3731.38C2486.03 3732.2 2499.98 3733.32 2507.4 3734.73C2522.23 3737.79 2532.35 3745.03 2537.77 3756.45C2541.18 3763.75 2542.89 3775.05 2542.89 3790.35C2542.89 3812.6 2539.24 3827.85 2531.94 3836.09C2524.41 3844.57 2513.64 3849.51 2499.63 3850.92C2488.92 3851.98 2474.44 3852.51 2456.19 3852.51C2434.07 3852.51 2419.24 3851.33 2411.7 3848.98C2394.05 3843.33 2383.92 3829.73 2381.33 3808.19C2380.75 3803.6 2380.33 3794.89 2380.1 3782.06H2408.17C2408.17 3786.06 2408.17 3788.65 2408.17 3789.83C2408.29 3799.95 2409.05 3807.42 2410.47 3812.25C2411.88 3816.96 2414.41 3820.55 2418.06 3823.02C2421.47 3825.38 2426.89 3826.67 2434.3 3826.91C2442.42 3827.26 2452.08 3827.44 2463.26 3827.44C2478.56 3827.44 2489.39 3826.85 2495.74 3825.67C2502.1 3824.49 2506.69 3822.2 2509.52 3818.78C2513.05 3814.66 2514.81 3804.3 2514.81 3787.71C2514.81 3779.7 2513.93 3773.76 2512.16 3769.87C2509.81 3764.34 2503.98 3760.98 2494.68 3759.81C2490.09 3759.22 2478.5 3758.57 2459.9 3757.86C2441.42 3757.04 2429.77 3756.33 2424.94 3755.75C2409.52 3753.51 2398.17 3747.62 2390.87 3738.09C2384.63 3730.08 2381.51 3717.72 2381.51 3701.01C2381.51 3676.99 2386.87 3660.86 2397.58 3652.62C2405.82 3646.27 2416.47 3642.5 2429.53 3641.32C2438.83 3640.61 2449.6 3640.26 2461.84 3640.26C2485.27 3640.26 2501.34 3641.73 2510.05 3644.68C2527.82 3650.56 2537.47 3664.69 2539 3687.06C2539.12 3689.53 2539.18 3694.88 2539.18 3703.12Z" fill="white"/>
<path d="M2604.69 3643.09V3849.69H2576.62V3643.09H2604.69Z" fill="white"/>
<path d="M2725.99 3669.75V3849.69H2697.92V3669.75H2629.59V3643.09H2793.79V3669.75H2725.99Z" fill="white"/>
<path d="M2982.01 3643.09L2900.97 3763.69V3849.69H2872.9V3763.69L2793.79 3643.09H2826.81L2887.73 3734.2L2948.46 3643.09H2982.01Z" fill="white"/>
<path d="M3178.06 3640.26C3193.48 3640.26 3205.19 3640.79 3213.19 3641.85C3221.2 3642.79 3228.2 3644.56 3234.2 3647.15C3251.62 3654.68 3261.98 3671.52 3265.28 3697.65C3266.22 3704.71 3266.69 3717.54 3266.69 3736.14C3266.69 3767.93 3266.16 3787.94 3265.1 3796.18C3263.33 3809.6 3260.27 3820.02 3255.92 3827.44C3251.56 3834.85 3245.09 3840.62 3236.5 3844.74C3227.79 3848.98 3216.49 3851.39 3202.6 3851.98C3195.42 3852.33 3186.35 3852.51 3175.41 3852.51C3156.93 3852.51 3143.74 3851.98 3135.86 3850.92C3128.09 3849.98 3120.91 3847.92 3114.32 3844.74C3101.96 3838.62 3093.66 3828.26 3089.42 3813.66C3086.48 3803.54 3084.89 3791.59 3084.66 3777.82C3084.42 3768.87 3084.3 3755.33 3084.3 3737.2C3084.3 3718.13 3084.77 3704.89 3085.72 3697.47C3089.01 3671.58 3099.37 3654.8 3116.79 3647.15C3124.56 3643.73 3134.74 3641.67 3147.33 3640.97C3155.46 3640.5 3165.7 3640.26 3178.06 3640.26ZM3172.58 3666.04C3159.05 3666.04 3149.39 3666.34 3143.63 3666.93C3137.86 3667.4 3133.03 3668.46 3129.15 3670.1C3122.09 3673.05 3117.32 3679.58 3114.85 3689.7C3113.2 3696.77 3112.38 3705.01 3112.38 3714.43V3746.39C3112.38 3771.34 3112.61 3786.18 3113.08 3790.88C3114.02 3800.42 3115.67 3807.6 3118.03 3812.43C3120.5 3817.25 3124.26 3820.73 3129.33 3822.85C3133.8 3824.73 3140.33 3825.85 3148.92 3826.2C3155.75 3826.55 3164.64 3826.73 3175.58 3826.73C3190.18 3826.73 3200.6 3826.5 3206.84 3826.02C3213.07 3825.44 3218.08 3824.38 3221.84 3822.85C3228.9 3819.9 3233.67 3813.31 3236.14 3803.07C3237.79 3795.89 3238.62 3787.65 3238.62 3778.35V3746.39C3238.62 3721.43 3238.38 3706.6 3237.91 3701.89C3236.97 3692.23 3235.26 3685.05 3232.79 3680.35C3230.44 3675.52 3226.73 3672.05 3221.67 3669.93C3217.08 3668.04 3210.37 3666.93 3201.54 3666.57C3194.36 3666.22 3184.71 3666.04 3172.58 3666.04Z" fill="white"/>
<path d="M3336.43 3668.16V3732.61H3440.07V3757.16H3336.43V3849.69H3308.36V3643.09H3442.72V3668.16H3336.43Z" fill="white"/>
<path d="M3847.65 3616.43V3849.69H3815.95V3645.74L3732.03 3849.69H3702.13L3617.81 3645.74V3849.69H3586.11V3616.43H3635.55L3716.68 3815.59L3797.61 3616.43H3847.65Z" fill="white"/>
<path d="M3966.09 3640.26C3981.51 3640.26 3993.22 3640.79 4001.23 3641.85C4009.23 3642.79 4016.23 3644.56 4022.24 3647.15C4039.66 3654.68 4050.01 3671.52 4053.31 3697.65C4054.25 3704.71 4054.72 3717.54 4054.72 3736.14C4054.72 3767.93 4054.19 3787.94 4053.13 3796.18C4051.37 3809.6 4048.31 3820.02 4043.95 3827.44C4039.6 3834.85 4033.12 3840.62 4024.53 3844.74C4015.82 3848.98 4004.52 3851.39 3990.63 3851.98C3983.45 3852.33 3974.39 3852.51 3963.44 3852.51C3944.96 3852.51 3931.78 3851.98 3923.89 3850.92C3916.12 3849.98 3908.94 3847.92 3902.35 3844.74C3889.99 3838.62 3881.69 3828.26 3877.46 3813.66C3874.51 3803.54 3872.93 3791.59 3872.69 3777.82C3872.46 3768.87 3872.34 3755.33 3872.34 3737.2C3872.34 3718.13 3872.81 3704.89 3873.75 3697.47C3877.05 3671.58 3887.4 3654.8 3904.82 3647.15C3912.59 3643.73 3922.77 3641.67 3935.37 3640.97C3943.49 3640.5 3953.73 3640.26 3966.09 3640.26ZM3960.62 3666.04C3947.08 3666.04 3937.43 3666.34 3931.66 3666.93C3925.89 3667.4 3921.07 3668.46 3917.18 3670.1C3910.12 3673.05 3905.35 3679.58 3902.88 3689.7C3901.23 3696.77 3900.41 3705.01 3900.41 3714.43V3746.39C3900.41 3771.34 3900.65 3786.18 3901.12 3790.88C3902.06 3800.42 3903.71 3807.6 3906.06 3812.43C3908.53 3817.25 3912.3 3820.73 3917.36 3822.85C3921.83 3824.73 3928.37 3825.85 3936.96 3826.2C3943.78 3826.55 3952.67 3826.73 3963.62 3826.73C3978.21 3826.73 3988.63 3826.5 3994.87 3826.02C4001.11 3825.44 4006.11 3824.38 4009.88 3822.85C4016.94 3819.9 4021.71 3813.31 4024.18 3803.07C4025.83 3795.89 4026.65 3787.65 4026.65 3778.35V3746.39C4026.65 3721.43 4026.41 3706.6 4025.94 3701.89C4025 3692.23 4023.3 3685.05 4020.82 3680.35C4018.47 3675.52 4014.76 3672.05 4009.7 3669.93C4005.11 3668.04 3998.4 3666.93 3989.57 3666.57C3982.39 3666.22 3972.74 3666.04 3960.62 3666.04Z" fill="white"/>
<path d="M4078.31 3849.69V3643.09H4182.48C4200.84 3643.09 4214.79 3646.21 4224.33 3652.45C4232.68 3657.86 4238.39 3666.1 4241.45 3677.17C4243.22 3683.76 4244.1 3692.41 4244.1 3703.12C4244.1 3720.78 4241.8 3733.61 4237.21 3741.62C4232.39 3750.33 4223.56 3755.27 4210.73 3756.45C4230.98 3757.75 4241.16 3770.81 4241.27 3795.65V3849.69H4213.2V3800.95C4213.2 3788.24 4210.32 3779.52 4204.55 3774.82C4198.55 3770.46 4189.6 3768.4 4177.71 3768.64H4106.38V3849.69H4078.31ZM4106.38 3743.56H4174.89C4188.9 3743.56 4199.02 3741.68 4205.26 3737.91C4212.44 3733.55 4216.03 3724.67 4216.03 3711.25C4216.03 3693 4214.38 3681.52 4211.08 3676.81C4206.96 3671.05 4197.49 3668.16 4182.66 3668.16H4106.38V3743.56Z" fill="white"/>
<path d="M4400.46 3806.95H4298.59L4282.34 3849.69H4252.5L4330.9 3643.09H4366.56L4446.54 3849.69H4416.88L4400.46 3806.95ZM4391.28 3783.29L4349.08 3672.93L4307.59 3783.29H4391.28Z" fill="white"/>
<path d="M4534.93 3669.75V3849.69H4506.86V3669.75H4438.53V3643.09H4602.73V3669.75H4534.93Z" fill="white"/>
<path d="M4759.26 3643.09H4787.34V3786.65C4787.34 3804.3 4785.39 3817.14 4781.51 3825.14C4775.74 3837.27 4765.38 3845.33 4750.44 3849.33C4742.31 3851.45 4726.6 3852.51 4703.29 3852.51C4686.7 3852.51 4674.75 3852.16 4667.45 3851.45C4660.27 3850.75 4653.92 3849.33 4648.38 3847.21C4636.03 3842.51 4627.49 3835.15 4622.78 3825.14C4618.9 3816.78 4616.96 3803.95 4616.96 3786.65V3643.09H4645.03V3786.65C4645.03 3801.24 4646.27 3810.72 4648.74 3815.08C4651.92 3820.49 4658.1 3824.08 4667.28 3825.85C4672.81 3826.91 4683.46 3827.44 4699.23 3827.44C4722.42 3827.44 4737.61 3826.26 4744.79 3823.91C4751.38 3821.79 4755.61 3816.49 4757.5 3808.01C4758.68 3803.3 4759.26 3796.18 4759.26 3786.65V3643.09Z" fill="white"/>
<path d="M5110.37 3643.09L5043.81 3849.69H5005.32L4953.05 3670.63L4899.91 3849.69H4861.95L4797.15 3643.09H4826.29L4880.67 3822.14L4934.34 3643.09H4971.95L5025.27 3822.14L5080.88 3643.09H5110.37Z" fill="white"/>
<path d="M5227.53 3806.95H5125.66L5109.42 3849.69H5079.58L5157.97 3643.09H5193.63L5273.62 3849.69H5243.95L5227.53 3806.95ZM5218.35 3783.29L5176.16 3672.93L5134.66 3783.29H5218.35Z" fill="white"/>
<ellipse cx="1277.24" cy="1329.89" rx="204.125" ry="128.323" fill="url(#paint0_radial_0_3)"/>
<ellipse cx="1288.9" cy="2834.77" rx="204.125" ry="128.323" fill="url(#paint1_radial_0_3)"/>
<ellipse cx="775.676" cy="2589.79" rx="204.125" ry="128.323" fill="url(#paint2_radial_0_3)"/>
<ellipse cx="775.676" cy="2251.48" rx="204.125" ry="128.323" fill="url(#paint3_radial_0_3)"/>
<ellipse cx="775.676" cy="1913.18" rx="204.125" ry="128.323" fill="url(#paint4_radial_0_3)"/>
<ellipse cx="775.676" cy="1574.87" rx="204.125" ry="128.323" fill="url(#paint5_radial_0_3)"/>
<ellipse cx="1778.8" cy="1574.87" rx="204.125" ry="128.323" fill="url(#paint6_radial_0_3)"/>
<ellipse cx="1778.8" cy="2578.12" rx="204.125" ry="128.323" fill="url(#paint7_radial_0_3)"/>
<ellipse cx="1778.8" cy="2589.79" rx="204.125" ry="128.323" fill="url(#paint8_radial_0_3)"/>
<ellipse cx="2805.26" cy="2589.79" rx="204.125" ry="128.323" fill="url(#paint9_radial_0_3)"/>
<ellipse cx="2805.26" cy="1878.18" rx="204.125" ry="128.323" fill="url(#paint10_radial_0_3)"/>
<ellipse cx="2805.26" cy="1574.87" rx="204.125" ry="128.323" fill="url(#paint11_radial_0_3)"/>
<ellipse cx="3820.05" cy="1586.54" rx="204.125" ry="128.323" fill="url(#paint12_radial_0_3)"/>
<ellipse cx="3820.05" cy="2251.48" rx="204.125" ry="128.323" fill="url(#paint13_radial_0_3)"/>
<ellipse cx="3306.82" cy="2869.77" rx="204.125" ry="128.323" fill="url(#paint14_radial_0_3)"/>
<ellipse cx="3306.82" cy="2041.5" rx="204.125" ry="128.323" fill="url(#paint15_radial_0_3)"/>
<ellipse cx="3306.82" cy="1318.23" rx="204.125" ry="128.323" fill="url(#paint16_radial_0_3)"/>
<ellipse cx="4753.2" cy="1353.22" rx="204.125" ry="128.323" fill="url(#paint17_radial_0_3)"/>
<ellipse cx="5254.76" cy="1353.22" rx="204.125" ry="128.323" fill="url(#paint18_radial_0_3)"/>
<ellipse cx="5254.76" cy="2064.83" rx="204.125" ry="128.323" fill="url(#paint19_radial_0_3)"/>
<ellipse cx="5254.76" cy="2811.44" rx="204.125" ry="128.323" fill="url(#paint20_radial_0_3)"/>
<ellipse cx="4753.2" cy="2811.44" rx="204.125" ry="128.323" fill="url(#paint21_radial_0_3)"/>
<ellipse cx="4753.2" cy="2438.13" rx="204.125" ry="128.323" fill="url(#paint22_radial_0_3)"/>
<ellipse cx="4753.2" cy="2064.83" rx="204.125" ry="128.323" fill="url(#paint23_radial_0_3)"/>
<ellipse cx="4753.2" cy="1703.19" rx="204.125" ry="128.323" fill="url(#paint24_radial_0_3)"/>
<ellipse cx="5767.99" cy="1353.22" rx="204.125" ry="128.323" fill="url(#paint25_radial_0_3)"/>
<ellipse cx="5767.99" cy="2064.83" rx="204.125" ry="128.323" fill="url(#paint26_radial_0_3)"/>
<ellipse cx="5767.99" cy="2811.44" rx="204.125" ry="128.323" fill="url(#paint27_radial_0_3)"/>
<ellipse cx="3831.72" cy="2589.79" rx="204.125" ry="128.323" fill="url(#paint28_radial_0_3)"/>
<defs>
<radialGradient id="paint0_radial_0_3" cx="0" cy="0" r="1" gradientUnits="userSpaceOnUse" gradientTransform="translate(1195.59 1329.89) rotate(90) scale(128.323 231.768)">
<stop stop-color="white"/>
<stop offset="0.270833" stop-color="#D8D8D8"/>
<stop offset="0.453125" stop-color="#A9A9A9"/>
<stop offset="1"/>
</radialGradient>
<radialGradient id="paint1_radial_0_3" cx="0" cy="0" r="1" gradientUnits="userSpaceOnUse" gradientTransform="translate(1207.25 2834.77) rotate(90) scale(128.323 231.768)">
<stop stop-color="white"/>
<stop offset="0.270833" stop-color="#D8D8D8"/>
<stop offset="0.453125" stop-color="#A9A9A9"/>
<stop offset="1"/>
</radialGradient>
<radialGradient id="paint2_radial_0_3" cx="0" cy="0" r="1" gradientUnits="userSpaceOnUse" gradientTransform="translate(694.026 2589.79) rotate(90) scale(128.323 231.768)">
<stop stop-color="white"/>
<stop offset="0.270833" stop-color="#D8D8D8"/>
<stop offset="0.453125" stop-color="#A9A9A9"/>
<stop offset="1"/>
</radialGradient>
<radialGradient id="paint3_radial_0_3" cx="0" cy="0" r="1" gradientUnits="userSpaceOnUse" gradientTransform="translate(694.026 2251.48) rotate(90) scale(128.323 231.768)">
<stop stop-color="white"/>
<stop offset="0.270833" stop-color="#D8D8D8"/>
<stop offset="0.453125" stop-color="#A9A9A9"/>
<stop offset="1"/>
</radialGradient>
<radialGradient id="paint4_radial_0_3" cx="0" cy="0" r="1" gradientUnits="userSpaceOnUse" gradientTransform="translate(694.026 1913.18) rotate(90) scale(128.323 231.768)">
<stop stop-color="white"/>
<stop offset="0.270833" stop-color="#D8D8D8"/>
<stop offset="0.453125" stop-color="#A9A9A9"/>
<stop offset="1"/>
</radialGradient>
<radialGradient id="paint5_radial_0_3" cx="0" cy="0" r="1" gradientUnits="userSpaceOnUse" gradientTransform="translate(694.026 1574.87) rotate(90) scale(128.323 231.768)">
<stop stop-color="white"/>
<stop offset="0.270833" stop-color="#D8D8D8"/>
<stop offset="0.453125" stop-color="#A9A9A9"/>
<stop offset="1"/>
</radialGradient>
<radialGradient id="paint6_radial_0_3" cx="0" cy="0" r="1" gradientUnits="userSpaceOnUse" gradientTransform="translate(1697.15 1574.87) rotate(90) scale(128.323 231.768)">
<stop stop-color="white"/>
<stop offset="0.270833" stop-color="#D8D8D8"/>
<stop offset="0.453125" stop-color="#A9A9A9"/>
<stop offset="1"/>
</radialGradient>
<radialGradient id="paintSK_radial_ESKE" cx="0" cy="0" r="1" gradientUnits="userSpaceOnUse" gradientTransform="translate(1195.59 1329.89) rotate(90) scale(128.323 231.768)">
<stop stop-color="white"/>
<stop offset="0.270833" stop-color="#D8D8D8"/>
<stop offset="0.453125" stop-color="#A9A9A9"/>
<stop offset="1"/>
</radialGradient>
<radialGradient id="paint7_radial_0_3" cx="0" cy="0" r="1" gradientUnits="userSpaceOnUse" gradientTransform="translate(1697.15 2578.12) rotate(90) scale(128.323 231.768)">
<stop stop-color="white"/>
<stop offset="0.270833" stop-color="#D8D8D8"/>
<stop offset="0.453125" stop-color="#A9A9A9"/>
<stop offset="1"/>
</radialGradient>
<radialGradient id="paint8_radial_0_3" cx="0" cy="0" r="1" gradientUnits="userSpaceOnUse" gradientTransform="translate(1697.15 2589.79) rotate(90) scale(128.323 231.768)">
<stop stop-color="white"/>
<stop offset="0.270833" stop-color="#D8D8D8"/>
<stop offset="0.453125" stop-color="#A9A9A9"/>
<stop offset="1"/>
</radialGradient>
<radialGradient id="paint9_radial_0_3" cx="0" cy="0" r="1" gradientUnits="userSpaceOnUse" gradientTransform="translate(2723.61 2589.79) rotate(90) scale(128.323 231.768)">
<stop stop-color="white"/>
<stop offset="0.270833" stop-color="#D8D8D8"/>
<stop offset="0.453125" stop-color="#A9A9A9"/>
<stop offset="1"/>
</radialGradient>
<radialGradient id="paint10_radial_0_3" cx="0" cy="0" r="1" gradientUnits="userSpaceOnUse" gradientTransform="translate(2723.61 1878.18) rotate(90) scale(128.323 231.768)">
<stop stop-color="white"/>
<stop offset="0.270833" stop-color="#D8D8D8"/>
<stop offset="0.453125" stop-color="#A9A9A9"/>
<stop offset="1"/>
</radialGradient>
<radialGradient id="paint11_radial_0_3" cx="0" cy="0" r="1" gradientUnits="userSpaceOnUse" gradientTransform="translate(2723.61 1574.87) rotate(90) scale(128.323 231.768)">
<stop stop-color="white"/>
<stop offset="0.270833" stop-color="#D8D8D8"/>
<stop offset="0.453125" stop-color="#A9A9A9"/>
<stop offset="1"/>
</radialGradient>
<radialGradient id="paint12_radial_0_3" cx="0" cy="0" r="1" gradientUnits="userSpaceOnUse" gradientTransform="translate(3738.4 1586.54) rotate(90) scale(128.323 231.768)">
<stop stop-color="white"/>
<stop offset="0.270833" stop-color="#D8D8D8"/>
<stop offset="0.453125" stop-color="#A9A9A9"/>
<stop offset="1"/>
</radialGradient>
<radialGradient id="paint13_radial_0_3" cx="0" cy="0" r="1" gradientUnits="userSpaceOnUse" gradientTransform="translate(3738.4 2251.48) rotate(90) scale(128.323 231.768)">
<stop stop-color="white"/>
<stop offset="0.270833" stop-color="#D8D8D8"/>
<stop offset="0.453125" stop-color="#A9A9A9"/>
<stop offset="1"/>
</radialGradient>
<radialGradient id="paint14_radial_0_3" cx="0" cy="0" r="1" gradientUnits="userSpaceOnUse" gradientTransform="translate(3225.17 2869.77) rotate(90) scale(128.323 231.768)">
<stop stop-color="white"/>
<stop offset="0.270833" stop-color="#D8D8D8"/>
<stop offset="0.453125" stop-color="#A9A9A9"/>
<stop offset="1"/>
</radialGradient>
<radialGradient id="paint15_radial_0_3" cx="0" cy="0" r="1" gradientUnits="userSpaceOnUse" gradientTransform="translate(3225.17 2041.5) rotate(90) scale(128.323 231.768)">
<stop stop-color="white"/>
<stop offset="0.270833" stop-color="#D8D8D8"/>
<stop offset="0.453125" stop-color="#A9A9A9"/>
<stop offset="1"/>
</radialGradient>
<radialGradient id="paint16_radial_0_3" cx="0" cy="0" r="1" gradientUnits="userSpaceOnUse" gradientTransform="translate(3225.17 1318.23) rotate(90) scale(128.323 231.768)">
<stop stop-color="white"/>
<stop offset="0.270833" stop-color="#D8D8D8"/>
<stop offset="0.453125" stop-color="#A9A9A9"/>
<stop offset="1"/>
</radialGradient>
<radialGradient id="paint17_radial_0_3" cx="0" cy="0" r="1" gradientUnits="userSpaceOnUse" gradientTransform="translate(4671.55 1353.22) rotate(90) scale(128.323 231.768)">
<stop stop-color="white"/>
<stop offset="0.270833" stop-color="#D8D8D8"/>
<stop offset="0.453125" stop-color="#A9A9A9"/>
<stop offset="1"/>
</radialGradient>
<radialGradient id="paint18_radial_0_3" cx="0" cy="0" r="1" gradientUnits="userSpaceOnUse" gradientTransform="translate(5173.11 1353.22) rotate(90) scale(128.323 231.768)">
<stop stop-color="white"/>
<stop offset="0.270833" stop-color="#D8D8D8"/>
<stop offset="0.453125" stop-color="#A9A9A9"/>
<stop offset="1"/>
</radialGradient>
<radialGradient id="paint19_radial_0_3" cx="0" cy="0" r="1" gradientUnits="userSpaceOnUse" gradientTransform="translate(5173.11 2064.83) rotate(90) scale(128.323 231.768)">
<stop stop-color="white"/>
<stop offset="0.270833" stop-color="#D8D8D8"/>
<stop offset="0.453125" stop-color="#A9A9A9"/>
<stop offset="1"/>
</radialGradient>
<radialGradient id="paint20_radial_0_3" cx="0" cy="0" r="1" gradientUnits="userSpaceOnUse" gradientTransform="translate(5173.11 2811.44) rotate(90) scale(128.323 231.768)">
<stop stop-color="white"/>
<stop offset="0.270833" stop-color="#D8D8D8"/>
<stop offset="0.453125" stop-color="#A9A9A9"/>
<stop offset="1"/>
</radialGradient>
<radialGradient id="paint21_radial_0_3" cx="0" cy="0" r="1" gradientUnits="userSpaceOnUse" gradientTransform="translate(4671.55 2811.44) rotate(90) scale(128.323 231.768)">
<stop stop-color="white"/>
<stop offset="0.270833" stop-color="#D8D8D8"/>
<stop offset="0.453125" stop-color="#A9A9A9"/>
<stop offset="1"/>
</radialGradient>
<radialGradient id="paint22_radial_0_3" cx="0" cy="0" r="1" gradientUnits="userSpaceOnUse" gradientTransform="translate(4671.55 2438.13) rotate(90) scale(128.323 231.768)">
<stop stop-color="white"/>
<stop offset="0.270833" stop-color="#D8D8D8"/>
<stop offset="0.453125" stop-color="#A9A9A9"/>
<stop offset="1"/>
</radialGradient>
<radialGradient id="paint23_radial_0_3" cx="0" cy="0" r="1" gradientUnits="userSpaceOnUse" gradientTransform="translate(4671.55 2064.83) rotate(90) scale(128.323 231.768)">
<stop stop-color="white"/>
<stop offset="0.270833" stop-color="#D8D8D8"/>
<stop offset="0.453125" stop-color="#A9A9A9"/>
<stop offset="1"/>
</radialGradient>
<radialGradient id="paint24_radial_0_3" cx="0" cy="0" r="1" gradientUnits="userSpaceOnUse" gradientTransform="translate(4671.55 1703.19) rotate(90) scale(128.323 231.768)">
<stop stop-color="white"/>
<stop offset="0.270833" stop-color="#D8D8D8"/>
<stop offset="0.453125" stop-color="#A9A9A9"/>
<stop offset="1"/>
</radialGradient>
<radialGradient id="paint25_radial_0_3" cx="0" cy="0" r="1" gradientUnits="userSpaceOnUse" gradientTransform="translate(5686.34 1353.22) rotate(90) scale(128.323 231.768)">
<stop stop-color="white"/>
<stop offset="0.270833" stop-color="#D8D8D8"/>
<stop offset="0.453125" stop-color="#A9A9A9"/>
<stop offset="1"/>
</radialGradient>
<radialGradient id="paint26_radial_0_3" cx="0" cy="0" r="1" gradientUnits="userSpaceOnUse" gradientTransform="translate(5686.34 2064.83) rotate(90) scale(128.323 231.768)">
<stop stop-color="white"/>
<stop offset="0.270833" stop-color="#D8D8D8"/>
<stop offset="0.453125" stop-color="#A9A9A9"/>
<stop offset="1"/>
</radialGradient>
<radialGradient id="paint27_radial_0_3" cx="0" cy="0" r="1" gradientUnits="userSpaceOnUse" gradientTransform="translate(5686.34 2811.44) rotate(90) scale(128.323 231.768)">
<stop stop-color="white"/>
<stop offset="0.270833" stop-color="#D8D8D8"/>
<stop offset="0.453125" stop-color="#A9A9A9"/>
<stop offset="1"/>
</radialGradient>
<radialGradient id="paint28_radial_0_3" cx="0" cy="0" r="1" gradientUnits="userSpaceOnUse" gradientTransform="translate(3750.07 2589.79) rotate(90) scale(128.323 231.768)">
<stop stop-color="white"/>
<stop offset="0.270833" stop-color="#D8D8D8"/>
<stop offset="0.453125" stop-color="#A9A9A9"/>
<stop offset="1"/>
</radialGradient>
</defs>
</svg>
